<svg width="18" height="17" viewBox="0 0 18 17" fill="none" xmlns="http://www.w3.org/2000/svg">
<path d="M17.5479 2.81023L10.2317 0.045209C9.87161 -0.0909391 9.46885 0.0907964 9.33255 0.451044L9.18642 0.837692L8.83753 1.76018L8.79179 1.88144L7.04366 6.50695C7.18395 6.617 7.32394 6.72675 7.46392 6.83665C7.7528 7.06336 8.03876 7.29375 8.33193 7.51463C8.40545 7.57004 8.3967 7.59921 8.34144 7.65492C8.02095 7.97741 7.7023 8.30159 7.38349 8.62592C7.26377 8.74764 7.14558 8.87151 7.02632 8.99369C7.00636 9.01395 6.98318 9.03129 6.96108 9.05048C6.93637 9.04649 6.91519 9.04342 6.89416 9.03958C6.64243 8.99307 6.39086 8.94672 6.13913 8.90021L5.89707 9.54089C6.30383 9.61687 6.71027 9.69622 7.11626 9.77589C7.17812 9.78817 7.21956 9.76791 7.26055 9.72508C7.69002 9.27642 8.13607 8.84388 8.55695 8.38693C8.57352 8.36866 8.59685 8.35669 8.61712 8.3418C8.66378 8.37895 8.63461 8.42254 8.62326 8.46076C8.4561 9.02224 8.28465 9.58233 8.11427 10.1427C8.00008 10.5186 7.88818 10.8955 7.77045 11.2701C7.72333 11.4207 7.69693 11.4296 7.57183 11.3314C6.96691 10.8569 6.36169 10.3831 5.75908 9.90574L4.89384 12.1951C4.75769 12.5556 4.93943 12.9583 5.29983 13.0944L9.93301 14.8453L10.8342 15.1859L10.8916 15.2078L12.6158 15.8594C12.9763 15.9956 13.3789 15.8138 13.5152 15.4534L17.9538 3.70939C18.0902 3.34899 17.9082 2.94653 17.5479 2.81023ZM10.7577 12.478C10.8136 12.2896 10.8713 12.1018 10.9283 11.9137C10.9666 11.7877 11.0041 11.6614 11.0437 11.5357C11.0596 11.4852 11.0684 11.4823 11.1105 11.5153C11.358 11.7096 11.6059 11.9036 11.8521 12.0996C11.8733 12.1165 11.9031 12.1243 11.9125 12.1544C11.8514 12.1544 11.7927 12.1381 11.7333 12.1272C11.5765 12.0982 11.4197 12.0677 11.2632 12.037C11.2425 12.033 11.2286 12.0398 11.215 12.054C11.0709 12.2045 10.9214 12.3497 10.7803 12.5028C10.7746 12.509 10.7668 12.5131 10.76 12.518C10.7445 12.5056 10.7539 12.4909 10.7577 12.478ZM10.8523 12.7481C10.9597 12.6399 11.0666 12.5312 11.1735 12.4226C11.2138 12.3816 11.2532 12.3401 11.2933 12.2992C11.3 12.2924 11.3077 12.2866 11.3152 12.2801C11.3235 12.2814 11.3306 12.2824 11.3378 12.2838C11.5393 12.321 11.7407 12.3581 11.9424 12.3954C11.9494 12.3966 11.9567 12.3991 11.9637 12.3998C11.9918 12.4028 11.9941 12.414 11.9857 12.441C11.906 12.6995 11.8282 12.9587 11.7498 13.2178C11.7304 13.282 11.7088 13.3454 11.6913 13.41C11.6827 13.4414 11.6729 13.4359 11.6527 13.4201C11.4844 13.2872 11.3152 13.1552 11.1465 13.0229C11.0497 12.9467 10.9539 12.8695 10.8555 12.7954C10.8308 12.777 10.8336 12.7667 10.8523 12.7481Z" fill="white"/>
<path d="M10.3751 2.34657C10.3387 2.35271 10.3025 2.35194 10.2792 2.34765C10.1642 2.33215 10.07 2.29258 9.9749 2.25577C9.96201 2.25071 9.95772 2.24503 9.96339 2.23031C10.0077 2.11819 10.0514 2.00576 10.0947 1.89318C10.0994 1.88075 10.1042 1.87738 10.1174 1.88229C10.2169 1.91895 10.3174 1.95361 10.4053 2.01527C10.4327 2.03444 10.4579 2.05622 10.4781 2.08291C10.5562 2.18598 10.5021 2.32464 10.3749 2.34657H10.3751Z" fill="#191B23"/>
<path d="M10.1751 1.68428C10.214 1.58565 10.2525 1.48688 10.2907 1.38795C10.2952 1.3766 10.2979 1.36555 10.314 1.37169C10.4016 1.40451 10.4909 1.43381 10.5654 1.49378C10.6314 1.54685 10.6539 1.60943 10.6322 1.67722C10.6085 1.75085 10.5478 1.79042 10.4628 1.78658C10.4473 1.78582 10.4318 1.78275 10.4163 1.78091C10.3349 1.77109 10.2597 1.74042 10.1844 1.7102C10.1693 1.70422 10.1702 1.69686 10.1751 1.68428Z" fill="#191B23"/>
<path d="M10.8846 1.89257C11.0134 1.76932 11.0174 1.56793 10.8935 1.44069C10.839 1.38482 10.7745 1.34245 10.705 1.30868C10.6778 1.29533 10.6752 1.28305 10.6864 1.25634C10.7164 1.18543 10.7423 1.11283 10.7713 1.0413C10.7792 1.02135 10.7801 1.01076 10.7554 1.00308C10.715 0.99034 10.6749 0.974531 10.6361 0.956879C10.6158 0.947516 10.6097 0.953195 10.6026 0.971921C10.5755 1.04529 10.5455 1.11743 10.5187 1.1908C10.5101 1.21444 10.4995 1.21766 10.4782 1.20799C10.4545 1.1974 10.43 1.18789 10.4051 1.18083C10.3779 1.17376 10.3722 1.16271 10.3838 1.13524C10.414 1.06432 10.4396 0.991415 10.4688 0.920194C10.4765 0.900701 10.4725 0.892412 10.4537 0.885658C10.4135 0.871077 10.3738 0.855727 10.3343 0.83915C10.3151 0.831322 10.3056 0.834545 10.2981 0.855113C10.2702 0.930325 10.2395 1.00446 10.2122 1.07998C10.2032 1.10393 10.1942 1.10607 10.1718 1.09702C10.0771 1.05864 9.98145 1.02273 9.88659 0.985275C9.86741 0.977447 9.85697 0.978829 9.84945 1.00032C9.83348 1.0456 9.81691 1.09042 9.79787 1.13447C9.78959 1.15366 9.79511 1.15857 9.81292 1.16486C9.85114 1.17822 9.8892 1.19295 9.92589 1.20999C9.97623 1.23378 9.99496 1.27921 9.97577 1.32956C9.88076 1.57423 9.78544 1.81874 9.68966 2.0631C9.68644 2.07154 9.68275 2.07876 9.67876 2.08505C9.6605 2.11283 9.63318 2.11943 9.59496 2.10593C9.56242 2.09441 9.53018 2.0826 9.49918 2.06801C9.48137 2.05972 9.4737 2.06418 9.46495 2.07968C9.43747 2.12772 9.41015 2.17561 9.38007 2.22197C9.36487 2.2456 9.37224 2.25144 9.3945 2.26003C9.48797 2.29534 9.58022 2.33402 9.67401 2.36871C9.70286 2.37914 9.70348 2.3905 9.69319 2.41537C9.66341 2.48736 9.63778 2.56119 9.60708 2.63333C9.59588 2.65927 9.6034 2.66694 9.62688 2.67462C9.66249 2.68644 9.69826 2.69918 9.73157 2.71575C9.76058 2.73018 9.76963 2.72051 9.7793 2.69365C9.79373 2.65343 9.80923 2.61353 9.82489 2.57377C9.83763 2.54092 9.85068 2.50792 9.86311 2.47492C9.86986 2.45681 9.87708 2.4499 9.89688 2.45957C9.92497 2.47308 9.95444 2.48383 9.98391 2.49411C10.0031 2.50086 10.0066 2.50946 9.99849 2.52865C9.96764 2.60493 9.93909 2.68229 9.90839 2.75842C9.90148 2.77577 9.90302 2.78329 9.92236 2.78943C9.96365 2.8034 10.0046 2.81936 10.0445 2.83701C10.0637 2.84545 10.0712 2.84269 10.0786 2.82274C10.1079 2.74461 10.1395 2.66771 10.1687 2.58958C10.1761 2.57009 10.1834 2.56733 10.2029 2.57316C10.2935 2.60186 10.3856 2.62473 10.4817 2.6255C10.5965 2.62627 10.6943 2.58851 10.7676 2.49718C10.8057 2.44944 10.8336 2.39603 10.853 2.33831C10.9 2.1971 10.8676 2.08674 10.7529 1.99203C10.7435 1.98436 10.7316 1.97976 10.7251 1.96563C10.754 1.95873 10.7825 1.95397 10.8091 1.9423C10.8372 1.93002 10.8625 1.91391 10.8846 1.89288V1.89257ZM10.513 2.20938C10.5128 2.21168 10.5124 2.21399 10.5119 2.21613C10.5119 2.21705 10.5118 2.21782 10.5113 2.21844C10.5107 2.22151 10.5102 2.22442 10.5093 2.22765C10.5082 2.23225 10.5067 2.23655 10.5052 2.24085C10.5036 2.2453 10.5019 2.24944 10.4998 2.25359C10.4921 2.27016 10.4814 2.28582 10.468 2.29887C10.4648 2.30209 10.4613 2.30547 10.4574 2.30854C10.4501 2.31452 10.4422 2.32005 10.4336 2.32496C10.4335 2.32511 10.4335 2.32496 10.4335 2.32496C10.4249 2.32987 10.4157 2.33417 10.406 2.33755C10.3963 2.34108 10.3859 2.34384 10.3752 2.34553C10.3388 2.35182 10.3026 2.35105 10.2792 2.3466C10.2217 2.33893 10.1693 2.32496 10.1194 2.30854C10.0946 2.30056 10.0703 2.2915 10.0464 2.28244C10.0343 2.27784 10.0224 2.27308 10.0106 2.26848C9.9988 2.26387 9.98682 2.25927 9.975 2.25481C9.97393 2.25451 9.97286 2.25389 9.97178 2.25328C9.97086 2.25297 9.96994 2.25236 9.96902 2.25174C9.96841 2.25144 9.96794 2.25113 9.96748 2.25082C9.96641 2.25006 9.96549 2.24929 9.96457 2.24852C9.96104 2.2453 9.96012 2.24115 9.96165 2.23501C9.96196 2.23317 9.96257 2.23133 9.96349 2.22918C10.0079 2.11698 10.0516 2.00447 10.0949 1.8918C10.0996 1.87937 10.1044 1.87615 10.1176 1.88091C10.2172 1.91759 10.3176 1.95243 10.4057 2.01398C10.4079 2.01552 10.4099 2.0169 10.4122 2.01859C10.4143 2.02012 10.4163 2.02166 10.4184 2.02335C10.4226 2.02642 10.4269 2.02979 10.431 2.03317C10.4349 2.03624 10.4387 2.03962 10.4425 2.04299C10.4464 2.04637 10.4502 2.0499 10.4539 2.05359C10.4599 2.05942 10.4656 2.0654 10.4709 2.07185C10.4737 2.07507 10.4763 2.07845 10.4788 2.08167C10.4849 2.08996 10.4903 2.09825 10.4949 2.10685C10.4964 2.10946 10.4978 2.11222 10.4989 2.11483C10.4992 2.11514 10.4995 2.11575 10.4996 2.11606C10.4996 2.11621 10.4998 2.11621 10.4996 2.11636C10.5012 2.11959 10.5026 2.12281 10.5038 2.12603C10.505 2.12926 10.5061 2.13263 10.5073 2.13586C10.509 2.14077 10.5102 2.14568 10.5113 2.15059C10.5116 2.15213 10.5119 2.15351 10.5122 2.15504C10.5125 2.15689 10.513 2.15888 10.5132 2.16072C10.5138 2.16349 10.5141 2.1664 10.5142 2.16932C10.5144 2.17085 10.5145 2.17224 10.5145 2.17392C10.5155 2.18559 10.5151 2.19725 10.5133 2.20861L10.513 2.20938ZM10.6399 1.63747C10.6399 1.63915 10.6398 1.64069 10.6396 1.64238C10.6395 1.6456 10.639 1.64898 10.6386 1.6522C10.6384 1.65343 10.6382 1.65481 10.6378 1.65604C10.6372 1.65957 10.6366 1.66279 10.6358 1.66632C10.6349 1.67047 10.6336 1.67461 10.6323 1.67876C10.6307 1.68321 10.6293 1.6875 10.6275 1.6915C10.6257 1.69564 10.6238 1.69978 10.622 1.70362C10.6201 1.70761 10.6181 1.7113 10.6158 1.71498C10.6137 1.71882 10.6114 1.72235 10.6089 1.72557C10.6023 1.73493 10.5947 1.74338 10.5862 1.75044C10.5845 1.75166 10.583 1.7532 10.5813 1.75443C10.5811 1.75473 10.5807 1.75504 10.5805 1.75504C10.5785 1.75688 10.5764 1.75857 10.5741 1.7598C10.5732 1.76057 10.5722 1.76133 10.5712 1.76164C10.5689 1.76364 10.5663 1.76517 10.5635 1.76655C10.5607 1.76824 10.5578 1.76978 10.5549 1.77116C10.5531 1.77208 10.5512 1.773 10.5492 1.77377C10.5465 1.775 10.5435 1.77638 10.5406 1.7773C10.5403 1.77745 10.5397 1.7776 10.5391 1.77791C10.5356 1.77945 10.532 1.78052 10.5283 1.78144C10.5244 1.78252 10.5204 1.78359 10.5162 1.78451C10.5133 1.78513 10.5104 1.78559 10.5073 1.78605C10.5047 1.78666 10.5023 1.78697 10.4995 1.78712C10.4958 1.78774 10.4918 1.78804 10.4878 1.7882C10.4832 1.7885 10.4785 1.78881 10.4735 1.78881C10.47 1.78881 10.4662 1.78881 10.4627 1.78866C10.4471 1.78789 10.4318 1.78482 10.4161 1.78282C10.3346 1.77315 10.2594 1.74246 10.1842 1.71206C10.169 1.70608 10.1698 1.69886 10.1747 1.68612C10.2137 1.58758 10.2522 1.48873 10.2906 1.38958C10.295 1.37822 10.2976 1.36732 10.3138 1.37331C10.3247 1.37745 10.3357 1.38159 10.3466 1.38558C10.3532 1.38789 10.36 1.3905 10.3666 1.39295C10.3773 1.3971 10.3879 1.40124 10.3985 1.40539C10.4045 1.40769 10.4103 1.41014 10.4163 1.41245C10.4372 1.42089 10.4577 1.42994 10.4777 1.44023C10.4817 1.44207 10.4857 1.44407 10.4895 1.44621C10.4953 1.44928 10.5012 1.45235 10.5067 1.45573C10.5118 1.45849 10.5165 1.46141 10.5213 1.46448C10.5214 1.46448 10.5216 1.46463 10.5219 1.46479C10.5268 1.4677 10.5317 1.47108 10.5365 1.4743C10.5412 1.47737 10.546 1.48075 10.5508 1.48443C10.5557 1.48796 10.5604 1.49149 10.5652 1.49533C10.5709 1.49994 10.5761 1.50454 10.5811 1.50899C10.5818 1.50961 10.5822 1.51007 10.5828 1.51068C10.5861 1.51375 10.5894 1.51713 10.5925 1.52035C10.596 1.52403 10.5993 1.52787 10.6022 1.53156C10.6037 1.5334 10.6051 1.53524 10.6066 1.53708C10.6069 1.53724 10.6072 1.53739 10.6074 1.53785C10.6083 1.53908 10.6094 1.54046 10.6102 1.54169C10.6105 1.54199 10.6109 1.54245 10.6109 1.54276C10.616 1.54982 10.6204 1.55734 10.6243 1.56471C10.6255 1.56732 10.6266 1.56978 10.628 1.57239C10.629 1.57499 10.6301 1.57745 10.631 1.57991C10.6326 1.58374 10.6338 1.58758 10.6349 1.59142C10.6359 1.59526 10.6369 1.59909 10.6376 1.60308C10.6395 1.61291 10.6404 1.62304 10.6402 1.63301C10.6402 1.6347 10.6402 1.63624 10.6401 1.63777L10.6399 1.63747Z" fill="#191B23"/>
<path d="M10.4783 2.08291C10.5564 2.18598 10.5022 2.32464 10.3751 2.34657C10.3387 2.35271 10.3025 2.35194 10.2792 2.34765C10.1642 2.33215 10.07 2.29258 9.9749 2.25577C9.96201 2.25071 9.95772 2.24503 9.96339 2.23031C10.0077 2.11819 10.0514 2.00576 10.0947 1.89318C10.0994 1.88075 10.1042 1.87738 10.1174 1.88229C10.2169 1.91895 10.3174 1.95361 10.4053 2.01527C10.4327 2.03444 10.4579 2.05622 10.4781 2.08291H10.4783Z" fill="white"/>
<path d="M10.6322 1.67722C10.6085 1.75085 10.5478 1.79042 10.4628 1.78658C10.4473 1.78582 10.4318 1.78275 10.4163 1.78091C10.3349 1.77109 10.2597 1.74042 10.1844 1.7102C10.1693 1.70422 10.1702 1.69686 10.1751 1.68428C10.214 1.58565 10.2525 1.48688 10.2907 1.38795C10.2952 1.3766 10.2979 1.36555 10.314 1.37169C10.4016 1.40451 10.4909 1.43381 10.5654 1.49378C10.6314 1.54685 10.6539 1.60943 10.6322 1.67722Z" fill="white"/>
<path d="M11.9605 9.35835C11.8601 9.37554 11.7594 9.37324 11.6949 9.36127C11.3764 9.31829 11.1155 9.209 10.8526 9.10693C10.8168 9.09296 10.805 9.077 10.8209 9.03663C10.9437 8.72612 11.0645 8.41483 11.1844 8.10324C11.1976 8.06871 11.2108 8.0595 11.2473 8.073C11.523 8.17462 11.801 8.27055 12.0444 8.44108C12.1203 8.49434 12.1899 8.55436 12.2464 8.62849C12.4629 8.91368 12.3126 9.29803 11.9606 9.35835H11.9605Z" fill="#191B23"/>
<path d="M11.4059 7.53097C11.5137 7.25806 11.6204 6.98438 11.7263 6.71055C11.7384 6.67924 11.7461 6.6487 11.7909 6.66558C12.0336 6.75645 12.2807 6.8378 12.4868 7.00357C12.6696 7.15046 12.7318 7.32391 12.6716 7.51163C12.6062 7.71532 12.4379 7.82491 12.2027 7.81463C12.1597 7.81263 12.1169 7.80419 12.0739 7.79882C11.8483 7.7718 11.6405 7.68677 11.4319 7.60311C11.3898 7.58638 11.3921 7.56628 11.4059 7.53113V7.53097Z" fill="#191B23"/>
<path d="M13.3705 8.10325C13.7264 7.76235 13.7376 7.20486 13.395 6.8529C13.2448 6.69818 13.0661 6.58122 12.8738 6.48759C12.7984 6.4509 12.7909 6.41667 12.8222 6.34315C12.9048 6.14699 12.9771 5.94576 13.0567 5.74791C13.0787 5.6928 13.081 5.66364 13.013 5.6423C12.9008 5.60685 12.7901 5.56325 12.683 5.51444C12.6265 5.48881 12.6099 5.50431 12.5904 5.55589C12.5147 5.7585 12.4325 5.95835 12.358 6.16142C12.3342 6.2265 12.3052 6.23571 12.2458 6.209C12.1804 6.17953 12.1126 6.15328 12.0432 6.13363C11.9679 6.11353 11.9522 6.08314 11.9846 6.00731C12.0676 5.81115 12.1388 5.60946 12.2196 5.41252C12.2409 5.35865 12.2297 5.33593 12.1781 5.31705C12.0672 5.27653 11.9571 5.23401 11.8478 5.18858C11.7949 5.16663 11.7686 5.17599 11.7476 5.23248C11.6701 5.44046 11.5852 5.64583 11.5097 5.85458C11.4851 5.9212 11.4603 5.92673 11.3978 5.90155C11.1814 5.81375 10.9628 5.73102 10.7454 5.64614C10.6998 5.62834 10.6544 5.61053 10.609 5.59257C10.556 5.57124 10.5269 5.57477 10.5064 5.63432C10.4624 5.75957 10.4159 5.88344 10.3635 6.00547C10.3407 6.05888 10.3559 6.07239 10.4048 6.08974C10.5111 6.12642 10.616 6.16725 10.7178 6.21468C10.8569 6.28037 10.9091 6.40639 10.8555 6.54546C10.5926 7.22251 10.3292 7.89926 10.0642 8.57509C10.0153 8.70157 9.931 8.73887 9.80192 8.69313C9.71228 8.66151 9.62325 8.6282 9.53699 8.5886C9.48818 8.56573 9.46699 8.57785 9.44228 8.62099C9.36676 8.75376 9.29078 8.88637 9.20774 9.01439C9.16569 9.07931 9.1858 9.09574 9.24781 9.11953C9.50644 9.21715 9.76155 9.32444 10.0214 9.41992C10.1014 9.44877 10.1029 9.48008 10.0744 9.54916C9.99209 9.74839 9.92072 9.95269 9.83599 10.1519C9.80545 10.2238 9.82586 10.2451 9.89063 10.2664C9.98933 10.2996 10.0879 10.3341 10.1806 10.38C10.2607 10.4201 10.2859 10.3935 10.3126 10.3189C10.386 10.1152 10.4682 9.91539 10.5444 9.71339C10.5632 9.66336 10.5824 9.64432 10.6378 9.67072C10.7155 9.70817 10.797 9.73795 10.8788 9.7665C10.9318 9.78538 10.9411 9.80887 10.9192 9.86228C10.8337 10.0733 10.7548 10.2868 10.6696 10.4982C10.6504 10.5462 10.6549 10.5665 10.708 10.584C10.8226 10.6225 10.9356 10.6672 11.0458 10.7157C11.0992 10.7387 11.1197 10.7312 11.1402 10.6763C11.221 10.4601 11.3088 10.2474 11.3896 10.0314C11.4096 9.97725 11.4306 9.96942 11.4842 9.98569C11.6807 10.0479 11.8796 10.1003 12.0848 10.1206C12.1413 10.1264 12.1981 10.1298 12.2555 10.1301C12.5732 10.1321 12.8438 10.0285 13.0466 9.77525C13.1521 9.6434 13.2293 9.49574 13.2828 9.33595C13.4131 8.94532 13.3238 8.63971 13.0061 8.37755C12.9804 8.35652 12.947 8.34393 12.9295 8.30479C13.0096 8.2856 13.0884 8.2724 13.1619 8.23986C13.2394 8.20579 13.3095 8.16158 13.3706 8.10325H13.3705ZM12.3465 8.93242C12.3465 8.93626 12.3464 8.94025 12.3459 8.94409C12.3458 8.94869 12.3453 8.95345 12.3448 8.95806C12.3448 8.95867 12.3448 8.95928 12.3447 8.96005C12.3444 8.96481 12.3438 8.96972 12.343 8.97448C12.3422 8.98093 12.3411 8.98722 12.3401 8.99351C12.3392 8.99888 12.3382 9.00395 12.337 9.00917C12.3358 9.01485 12.3344 9.02053 12.333 9.02605C12.3322 9.02928 12.3313 9.03265 12.3304 9.03572C12.3273 9.04708 12.3236 9.05829 12.3197 9.06918C12.3169 9.07655 12.314 9.08377 12.3109 9.09113C12.3091 9.09528 12.3072 9.09958 12.3052 9.10372C12.3026 9.10909 12.3002 9.11446 12.2972 9.11999C12.2943 9.12567 12.2914 9.1312 12.288 9.13657C12.2825 9.14624 12.2765 9.1556 12.2701 9.16496C12.2675 9.1688 12.2647 9.17264 12.2621 9.17632C12.2592 9.18031 12.2563 9.1843 12.2532 9.18814C12.2506 9.19167 12.2478 9.1949 12.2449 9.19827C12.2421 9.2015 12.2394 9.20487 12.2363 9.20809C12.234 9.21101 12.2314 9.21377 12.2288 9.21654C12.2257 9.22007 12.2223 9.22344 12.219 9.22682C12.2164 9.22943 12.2139 9.23189 12.2113 9.23434C12.2071 9.23833 12.2029 9.24232 12.1986 9.24616C12.1959 9.24831 12.1935 9.25077 12.1909 9.25276C12.186 9.25691 12.1811 9.26105 12.1758 9.26504L12.1714 9.26826C12.1663 9.2721 12.1611 9.27579 12.1559 9.27947C12.1508 9.28331 12.1453 9.28684 12.1398 9.29021C12.1284 9.29758 12.1166 9.30434 12.1042 9.31048C12.0919 9.31692 12.0793 9.3226 12.0661 9.32782C12.053 9.33319 12.0395 9.3381 12.0257 9.34225C12.0188 9.3444 12.0116 9.34639 12.0045 9.34808C11.9903 9.35192 11.9757 9.35499 11.9606 9.3576C11.9542 9.35867 11.9481 9.35959 11.9416 9.36051C11.9352 9.36159 11.9289 9.36236 11.9226 9.36312C11.9141 9.3642 11.9057 9.36512 11.8974 9.36589C11.8847 9.36711 11.8719 9.36803 11.8598 9.36865C11.8377 9.36988 11.8165 9.37034 11.7962 9.36972C11.7855 9.36957 11.7751 9.36896 11.7648 9.36849H11.7642C11.7514 9.36757 11.739 9.3665 11.7275 9.36527C11.716 9.36374 11.7049 9.3622 11.6951 9.36036C11.5956 9.34685 11.5018 9.32705 11.4117 9.30311C11.4044 9.30111 11.3972 9.29927 11.3898 9.29712C11.3861 9.2962 11.3827 9.29528 11.3792 9.29421C11.3631 9.28975 11.3473 9.285 11.3313 9.28024C11.3138 9.27517 11.2963 9.26965 11.2793 9.26397C11.2672 9.26013 11.2552 9.25629 11.2435 9.2523C11.2329 9.24908 11.2226 9.24555 11.2122 9.24171C11.2105 9.2414 11.2091 9.24079 11.2076 9.24002C11.1949 9.23588 11.1821 9.23143 11.1697 9.22682C11.1612 9.22391 11.1531 9.22099 11.1447 9.21792C11.1299 9.21285 11.1152 9.20733 11.1006 9.2018C11.0672 9.18937 11.0338 9.17678 11.001 9.16389C10.9514 9.14486 10.9023 9.12552 10.8529 9.10633C10.8467 9.10403 10.8411 9.10142 10.8363 9.09866H10.8361C10.8338 9.09743 10.8317 9.09605 10.8297 9.09451C10.8277 9.09328 10.8259 9.09175 10.8242 9.08991C10.8225 9.08822 10.8211 9.08668 10.8197 9.08484C10.8185 9.083 10.8174 9.08116 10.8168 9.07916C10.816 9.07732 10.8153 9.07548 10.815 9.07348C10.8142 9.06949 10.814 9.06519 10.8147 9.06028C10.8148 9.05829 10.8153 9.05614 10.8157 9.05368C10.8163 9.05092 10.817 9.04816 10.8179 9.04524C10.8188 9.04232 10.8199 9.03925 10.8211 9.03588C10.8546 8.95099 10.888 8.86627 10.9212 8.78123C10.9421 8.72843 10.9626 8.67563 10.9834 8.62252C11.0205 8.52705 11.0576 8.43158 11.0945 8.33626C11.1247 8.25844 11.1546 8.18046 11.1847 8.10264C11.1876 8.09512 11.1906 8.08867 11.1936 8.08345C11.1946 8.08223 11.1953 8.08115 11.1959 8.07977C11.1976 8.07762 11.1995 8.07563 11.2013 8.07378C11.2033 8.07179 11.2055 8.07025 11.2079 8.06918C11.2091 8.06857 11.2105 8.0681 11.2119 8.06764C11.2157 8.06642 11.2202 8.06595 11.2251 8.06657C11.228 8.06688 11.2311 8.06749 11.2345 8.06826C11.2348 8.06826 11.2351 8.06826 11.2354 8.06841C11.2369 8.06872 11.2383 8.06918 11.2398 8.06964C11.2421 8.07041 11.2447 8.07117 11.2475 8.07225C11.2992 8.09128 11.351 8.11016 11.4025 8.12935C11.4351 8.14147 11.4675 8.15345 11.4999 8.16603C11.5018 8.16695 11.5037 8.16772 11.5055 8.16818C11.5275 8.17662 11.5493 8.18537 11.5709 8.19412C11.5738 8.1952 11.5766 8.19627 11.5794 8.19735C11.6027 8.20686 11.626 8.21653 11.649 8.22636C11.669 8.23495 11.6886 8.24355 11.7085 8.25245C11.725 8.25997 11.7418 8.26765 11.7582 8.27547C11.7771 8.28438 11.7956 8.29359 11.8141 8.3031C11.8254 8.30878 11.8368 8.31461 11.8481 8.3206C11.8712 8.33288 11.8942 8.34547 11.9169 8.35882C11.9261 8.36389 11.935 8.36926 11.9439 8.37478C11.9781 8.3952 12.0118 8.41699 12.0446 8.44002C12.0649 8.45429 12.0848 8.46903 12.1042 8.48468C12.1118 8.49082 12.1194 8.49696 12.1269 8.50326C12.1345 8.5097 12.1422 8.5163 12.1496 8.52306C12.1531 8.52613 12.1563 8.52904 12.1597 8.53242C12.1645 8.53656 12.1692 8.54117 12.1738 8.54577L12.1749 8.54685C12.1832 8.55483 12.1912 8.56312 12.199 8.57156C12.2016 8.57417 12.2039 8.57693 12.2064 8.57939C12.2128 8.5863 12.219 8.59336 12.2248 8.60042C12.2325 8.60932 12.2398 8.61838 12.2467 8.62759C12.2553 8.63894 12.2633 8.65046 12.2707 8.66197C12.2782 8.67363 12.285 8.6853 12.2914 8.69727C12.2979 8.70909 12.3035 8.72106 12.3086 8.73304C12.3114 8.73902 12.3137 8.74516 12.3161 8.75115C12.3178 8.75575 12.3197 8.76036 12.321 8.76481C12.3227 8.76941 12.3241 8.77402 12.3256 8.77847C12.3272 8.78261 12.3284 8.78676 12.3295 8.7909C12.331 8.79581 12.3322 8.80103 12.3335 8.80594C12.3352 8.81193 12.3364 8.81822 12.3376 8.82436C12.3413 8.84125 12.3436 8.85798 12.3451 8.87486C12.3454 8.87763 12.3458 8.88039 12.3459 8.88315C12.3471 8.89957 12.3476 8.91584 12.3468 8.93212L12.3465 8.93242ZM12.691 7.42389L12.6903 7.42835C12.6876 7.4503 12.683 7.4724 12.6767 7.49465C12.6751 7.50049 12.6735 7.50617 12.6716 7.512C12.6678 7.52428 12.6636 7.5361 12.6589 7.54746C12.6543 7.55912 12.6494 7.57033 12.6438 7.58092C12.6365 7.59565 12.6285 7.60977 12.6199 7.62328C12.6179 7.6262 12.6159 7.62927 12.6139 7.63218C12.6139 7.63249 12.6138 7.6328 12.6136 7.63295C12.6118 7.63602 12.6098 7.63878 12.6076 7.64155C12.6044 7.64631 12.6009 7.65106 12.5973 7.65567C12.5904 7.66457 12.5829 7.67317 12.5751 7.68146C12.5674 7.6899 12.5594 7.69773 12.551 7.7054C12.5425 7.71308 12.5339 7.72014 12.5249 7.72704C12.5178 7.73257 12.5103 7.73763 12.5026 7.74255C12.496 7.747 12.4893 7.75114 12.4824 7.75513C12.4824 7.75513 12.4822 7.75513 12.4821 7.75529C12.475 7.75928 12.4676 7.76311 12.4603 7.7668C12.4566 7.76864 12.4529 7.77033 12.4491 7.77217C12.4378 7.77724 12.4262 7.78199 12.4144 7.78629C12.4104 7.78783 12.4064 7.78905 12.4022 7.79044C12.3944 7.79304 12.3866 7.79535 12.3784 7.79734C12.3688 7.79995 12.3591 7.80225 12.349 7.80425C12.3367 7.80686 12.3241 7.80885 12.3115 7.81039C12.2816 7.81438 12.2501 7.81607 12.2174 7.8153C12.2127 7.8153 12.2078 7.81515 12.2028 7.81499C12.1867 7.81423 12.1709 7.81269 12.1548 7.81039C12.1335 7.80763 12.1118 7.80425 12.0905 7.80103C12.0851 7.80011 12.0797 7.79934 12.0744 7.79872C12.0707 7.79842 12.0673 7.7978 12.0638 7.7975C12.0569 7.79673 12.0501 7.79581 12.0434 7.79473C12.0345 7.79351 12.0256 7.79197 12.0168 7.79059C12.0071 7.78905 11.9976 7.78752 11.9881 7.78568C11.9786 7.78399 11.9691 7.78215 11.9597 7.78015C11.9533 7.77892 11.947 7.77754 11.9404 7.77616C11.9327 7.77447 11.9252 7.77294 11.9175 7.77079C11.9034 7.76757 11.8896 7.76403 11.8755 7.76035C11.8653 7.75774 11.8552 7.75498 11.8451 7.75206C11.8366 7.74976 11.828 7.7473 11.8196 7.745C11.7683 7.72996 11.7178 7.71308 11.6675 7.69466C11.6489 7.6879 11.6303 7.681 11.6119 7.67393C11.5517 7.65106 11.492 7.62697 11.4322 7.60302C11.4305 7.60225 11.4291 7.60179 11.4276 7.60103C11.423 7.59903 11.4191 7.59703 11.4159 7.59504C11.4136 7.5935 11.4114 7.59228 11.4099 7.59089C11.4081 7.58967 11.4064 7.58798 11.4051 7.58644C11.4044 7.58552 11.4036 7.58475 11.4032 7.58414C11.4019 7.58245 11.4009 7.58061 11.4001 7.57877C11.3993 7.57723 11.3989 7.5757 11.3984 7.57416C11.3981 7.57294 11.3978 7.57186 11.3976 7.57048C11.3975 7.56879 11.3973 7.56726 11.3973 7.56572C11.3973 7.56342 11.3975 7.56081 11.3981 7.5582C11.3984 7.55559 11.399 7.55283 11.3999 7.54991C11.4005 7.547 11.4016 7.54393 11.4027 7.5407C11.4038 7.53748 11.405 7.53441 11.4064 7.53103C11.5143 7.25812 11.6208 6.98444 11.7269 6.71046C11.7307 6.70064 11.7339 6.69066 11.7384 6.68252C11.7399 6.67976 11.7415 6.67715 11.7431 6.67485C11.7442 6.67301 11.7454 6.67132 11.747 6.66994C11.7507 6.6661 11.7548 6.66334 11.7602 6.66196C11.7628 6.66119 11.7655 6.66088 11.7686 6.66088H11.7694C11.7723 6.66088 11.7755 6.66119 11.7792 6.66196C11.7811 6.66226 11.783 6.66288 11.785 6.66349C11.787 6.6638 11.7892 6.66457 11.7916 6.66549C11.8825 6.69956 11.9741 6.73226 12.0639 6.76879C12.0939 6.78091 12.1236 6.79335 12.1531 6.8067C12.1605 6.80992 12.1679 6.8133 12.1752 6.81652C12.1826 6.81975 12.1898 6.82312 12.1972 6.82681C12.2409 6.84753 12.2839 6.86963 12.326 6.89373C12.3347 6.8988 12.3433 6.90401 12.3519 6.90923C12.3608 6.91476 12.37 6.92044 12.3789 6.92612C12.3869 6.93118 12.3952 6.93656 12.4032 6.94208C12.4116 6.94776 12.42 6.95344 12.4283 6.95927C12.4349 6.96403 12.4415 6.96879 12.4481 6.9737C12.4549 6.97831 12.4615 6.98337 12.4679 6.98844C12.4745 6.99335 12.4811 6.99857 12.4874 7.00363C12.496 7.01054 12.5043 7.0176 12.5123 7.02466C12.5163 7.02834 12.5203 7.03203 12.5244 7.03525C12.5322 7.04216 12.5398 7.04953 12.547 7.05689C12.5508 7.06042 12.5545 7.06395 12.5577 7.06764C12.5628 7.07316 12.568 7.07854 12.5729 7.08406C12.5778 7.08959 12.5826 7.09527 12.5874 7.10064C12.5906 7.10432 12.5935 7.10816 12.5966 7.11184C12.601 7.11737 12.6053 7.12305 12.6093 7.12873C12.6134 7.13441 12.6173 7.14009 12.6214 7.14577C12.6253 7.1516 12.6289 7.15728 12.6323 7.16311C12.636 7.16894 12.6392 7.17462 12.6426 7.18046C12.6512 7.19596 12.6587 7.21192 12.6653 7.22773C12.6666 7.23065 12.6676 7.23356 12.6689 7.23663C12.6701 7.23955 12.6712 7.24247 12.6721 7.24554C12.6742 7.25152 12.6762 7.25766 12.6781 7.26365C12.6799 7.26994 12.6816 7.27593 12.683 7.28191C12.6859 7.29419 12.6885 7.30663 12.6903 7.31906C12.6922 7.33149 12.6933 7.34392 12.694 7.35651C12.6948 7.37355 12.6946 7.39074 12.6931 7.40793C12.6928 7.4133 12.6922 7.41837 12.6916 7.42359L12.691 7.42389Z" fill="#191B23"/>
<path d="M12.2463 8.62849C12.4627 8.91368 12.3124 9.29803 11.9605 9.35835C11.8601 9.37554 11.7594 9.37324 11.6949 9.36127C11.3764 9.31829 11.1155 9.209 10.8526 9.10693C10.8168 9.09296 10.805 9.077 10.8209 9.03663C10.9437 8.72612 11.0645 8.41483 11.1844 8.10324C11.1976 8.06871 11.2108 8.0595 11.2473 8.073C11.523 8.17462 11.801 8.27055 12.0444 8.44108C12.1203 8.49434 12.1899 8.55436 12.2464 8.62849H12.2463Z" fill="white"/>
<path d="M12.6716 7.51148C12.6062 7.71516 12.4379 7.82476 12.2027 7.81447C12.1597 7.81248 12.1169 7.80404 12.0739 7.79866C11.8483 7.77165 11.6405 7.68661 11.4319 7.60296C11.3898 7.58623 11.3921 7.56612 11.4059 7.53097C11.5137 7.25806 11.6204 6.98438 11.7263 6.71055C11.7384 6.67924 11.7461 6.6487 11.7909 6.66558C12.0336 6.75645 12.2807 6.8378 12.4868 7.00357C12.6696 7.15046 12.7318 7.32391 12.6716 7.51163V7.51148Z" fill="white"/>
<path d="M13.4294 13.4586C13.3359 13.4233 13.2436 13.3843 13.1499 13.3501C13.1212 13.3396 13.1204 13.3283 13.1307 13.3034C13.1605 13.2313 13.1862 13.1576 13.2168 13.0855C13.228 13.0595 13.2205 13.0514 13.197 13.0437C13.1615 13.032 13.1256 13.0196 13.0921 13.0029C13.0633 12.9883 13.0541 12.998 13.0444 13.025C13.028 13.0709 13.01 13.1162 12.9925 13.1616C12.9818 13.1891 12.9712 13.2162 12.9608 13.2439C12.954 13.262 12.9471 13.2687 12.927 13.2592C12.8989 13.2457 12.8694 13.235 12.84 13.2247C12.8208 13.2178 12.8174 13.2093 12.8254 13.19C12.8562 13.1137 12.8849 13.0367 12.9155 12.9602C12.9224 12.9429 12.9209 12.9355 12.9015 12.9294C12.8604 12.9152 12.8194 12.8991 12.7793 12.8816C12.7601 12.8732 12.7528 12.8761 12.7453 12.8959C12.7365 12.9195 12.7275 12.9429 12.7182 12.9665C12.6972 13.0207 12.6756 13.0746 12.6552 13.1291C12.6481 13.1485 12.6404 13.1516 12.6211 13.1455C12.5304 13.1169 12.4384 13.0941 12.342 13.0934C12.2272 13.0927 12.1296 13.13 12.0561 13.2216C12.018 13.2692 11.9902 13.3228 11.9709 13.3805C11.9238 13.5217 11.9561 13.6319 12.071 13.7268C12.0802 13.7344 12.0926 13.739 12.0986 13.7528C12.0697 13.7599 12.0412 13.765 12.0146 13.7765C11.9867 13.7889 11.9612 13.8049 11.9391 13.8261C11.8183 13.9416 11.8073 14.1263 11.9087 14.2538C11.9155 14.2621 11.9224 14.2701 11.9301 14.2779C11.9847 14.3337 12.049 14.3762 12.1185 14.4099C12.1457 14.4233 12.1485 14.4356 12.1374 14.462C12.1075 14.5329 12.0812 14.6057 12.0524 14.6772C12.0446 14.6971 12.0436 14.7077 12.0684 14.7154C12.0892 14.7218 12.1098 14.7294 12.1304 14.7375C12.1497 14.7449 12.1689 14.7529 12.1876 14.7616C12.208 14.7708 12.2142 14.7648 12.2211 14.7464C12.2269 14.7309 12.2327 14.7154 12.2389 14.6997C12.261 14.6423 12.284 14.5855 12.305 14.5275C12.3136 14.5042 12.3242 14.5008 12.3456 14.5103C12.3692 14.5211 12.3938 14.5306 12.4189 14.5373C12.4459 14.5449 12.4518 14.5558 12.4401 14.5832C12.4324 14.6015 12.4249 14.6198 12.4179 14.6379C12.3967 14.6913 12.3767 14.7452 12.3551 14.7983C12.3474 14.8178 12.3514 14.8259 12.3701 14.8328C12.4103 14.8474 12.4501 14.8628 12.4895 14.879C12.5087 14.887 12.5182 14.8836 12.5258 14.8631C12.5537 14.7878 12.5844 14.7139 12.6119 14.6383C12.6206 14.6144 12.6297 14.6123 12.6522 14.6213C12.7468 14.6597 12.8424 14.6953 12.9373 14.7331C12.9566 14.7406 12.9669 14.7395 12.9744 14.7179C12.9904 14.6727 13.0073 14.6279 13.026 14.5839C13.0344 14.5645 13.0289 14.5593 13.0113 14.5533C12.9729 14.5401 12.9348 14.5254 12.8981 14.508C12.8478 14.4847 12.8291 14.439 12.8486 14.3886C12.8493 14.3866 12.8502 14.3842 12.8512 14.382C12.9047 14.244 12.9583 14.1057 13.0122 13.9677C13.0527 13.8635 13.0935 13.7591 13.1344 13.6549C13.1522 13.6093 13.1824 13.5958 13.2292 13.6122C13.2616 13.6238 13.294 13.6359 13.3248 13.6502C13.3426 13.6581 13.3503 13.6542 13.3592 13.6385C13.3864 13.5906 13.4139 13.5426 13.4438 13.4962C13.4591 13.4729 13.4518 13.4669 13.4294 13.4583V13.4586ZM12.4489 13.3725C12.4852 13.3665 12.5215 13.3671 12.5451 13.3714C12.6601 13.3869 12.7545 13.4265 12.8495 13.4634C12.8625 13.4683 12.8667 13.4741 12.8608 13.4888C12.8166 13.601 12.7729 13.7136 12.7296 13.8262C12.7248 13.8386 12.7199 13.8422 12.7067 13.8371C12.6071 13.8004 12.5067 13.7656 12.4188 13.7042C12.3913 13.6848 12.366 13.6632 12.3457 13.6363C12.2676 13.5332 12.3218 13.3943 12.449 13.3725H12.4489ZM12.6495 14.0325C12.6105 14.1311 12.5721 14.2302 12.5336 14.3292C12.5291 14.3404 12.5265 14.3513 12.5104 14.3455C12.4226 14.3123 12.3334 14.2832 12.2588 14.2233C12.236 14.2049 12.2185 14.1854 12.206 14.1648C12.1827 14.126 12.1779 14.0838 12.1921 14.0394C12.2157 13.9659 12.2765 13.9264 12.3615 13.9301C12.377 13.9307 12.3925 13.9338 12.408 13.9358C12.4897 13.9456 12.5649 13.9763 12.6403 14.0066C12.649 14.0101 12.6525 14.0139 12.6529 14.0192C12.653 14.0228 12.6516 14.0271 12.6496 14.0325H12.6495Z" fill="#191B23"/>
<g opacity="0.36">
<path d="M5.89681 9.53968L5.75897 9.90453C5.62574 9.79908 5.49266 9.69333 5.35973 9.58757C5.2968 9.53753 5.20747 9.51405 5.17969 9.42456C5.36204 9.42456 5.53717 9.47276 5.71415 9.5056C5.77509 9.51696 5.83602 9.52832 5.89696 9.53983L5.89681 9.53968Z" fill="#424242"/>
<path d="M13.0049 13.195L12.9942 13.1588L12.084 10.118L11.8589 9.366L11.499 8.16338L10.7449 5.64365L9.82639 2.57456L9.68011 2.08599L9.4052 1.16749C9.36483 1.03272 9.28747 0.91929 9.1874 0.834869L8.83851 1.75736L8.79277 1.87862L7.04464 6.50413C7.18493 6.61418 7.32491 6.72393 7.4649 6.83383C7.75377 7.06054 8.03973 7.29093 8.3329 7.51181C8.40642 7.56722 8.39768 7.59638 8.34242 7.6521C8.02193 7.97459 7.70327 8.29876 7.38447 8.62309C7.26475 8.74481 7.14656 8.86868 7.02729 8.99086C7.00734 9.01112 6.98416 9.02847 6.96206 9.04766C6.93735 9.04366 6.91616 9.0406 6.89513 9.03676C6.64341 8.99025 6.39183 8.9439 6.1401 8.89739L5.89805 9.53807C6.3048 9.61405 6.71125 9.6934 7.11724 9.77306C7.1791 9.78534 7.22054 9.76508 7.26152 9.72226C7.69099 9.2736 8.13705 8.84105 8.55792 8.38411C8.5745 8.36584 8.59783 8.35387 8.61809 8.33898C8.66475 8.37613 8.63559 8.41972 8.62423 8.45794C8.45708 9.01941 8.28563 9.57951 8.11525 10.1399C8.00105 10.5158 7.88915 10.8926 7.77143 11.2673C7.7243 11.4179 7.6979 11.4268 7.57281 11.3286C6.96789 10.8541 6.36267 10.3803 5.76006 9.90292L4.89482 12.1923C4.75867 12.5528 4.9404 12.9554 5.3008 13.0916L9.93399 14.8425L11.9107 14.2509L12.2075 14.162L12.5366 14.0635C12.5779 14.0512 12.6172 14.0354 12.6543 14.0164C12.9489 13.8664 13.103 13.523 13.0051 13.1952L13.0049 13.195ZM10.7604 12.5151C10.7449 12.5026 10.7546 12.488 10.7584 12.4752C10.8143 12.2868 10.872 12.0989 10.9289 11.9109C10.9673 11.7849 11.0048 11.6586 11.0444 11.5329C11.0603 11.4824 11.0691 11.4794 11.1111 11.5124C11.3587 11.7068 11.6066 11.9008 11.8528 12.0968C11.874 12.1137 11.9038 12.1215 11.9131 12.1516C11.852 12.1516 11.7934 12.1353 11.734 12.1244C11.5771 12.0954 11.4204 12.0649 11.2638 12.0342C11.2431 12.0302 11.2293 12.0369 11.2157 12.0512C11.0715 12.2016 10.922 12.3468 10.781 12.5C10.7753 12.5062 10.7675 12.5103 10.7607 12.5152L10.7604 12.5151ZM11.6919 13.407C11.6833 13.4385 11.6735 13.4329 11.6534 13.4171C11.485 13.2842 11.3159 13.1522 11.1472 13.0199C11.0503 12.9438 10.9546 12.8666 10.8562 12.7924C10.8315 12.774 10.8344 12.764 10.8531 12.7455C10.9605 12.6372 11.0674 12.5286 11.1744 12.4199C11.2146 12.3789 11.254 12.3375 11.2941 12.2965C11.3008 12.2897 11.3085 12.2839 11.316 12.2775C11.3243 12.2787 11.3314 12.2798 11.3386 12.2811C11.5401 12.3183 11.7415 12.3554 11.9432 12.3927C11.9503 12.394 11.9575 12.3964 11.9645 12.3972C11.9926 12.4001 11.9949 12.4113 11.9865 12.4383C11.9068 12.6968 11.829 12.956 11.7506 13.2151C11.7312 13.2793 11.7096 13.3427 11.6921 13.4073L11.6919 13.407Z" fill="#424242"/>
<path d="M5.89876 9.53675L5.76092 9.9016C5.62769 9.79615 5.49461 9.6904 5.36169 9.58464C5.29876 9.5346 5.20942 9.51112 5.18164 9.42163C5.36399 9.42163 5.53913 9.46983 5.7161 9.50267C5.77704 9.51403 5.83798 9.52539 5.89891 9.5369L5.89876 9.53675Z" fill="#424242"/>
</g>
<path d="M12.4589 13.1973C12.5694 13.5664 12.3597 13.9554 11.9906 14.0656L4.49796 16.3084C4.12881 16.4189 3.74002 16.2092 3.6295 15.8401L0.0294814 3.8127C-0.0810335 3.44355 0.128791 3.05475 0.497788 2.94439L7.99054 0.701552C8.35954 0.591037 8.74849 0.800708 8.85885 1.16986L12.4589 13.1973Z" fill="white"/>
<path d="M1.67034 4.69956C1.66205 4.69818 1.65499 4.69725 1.64793 4.69587C1.44639 4.65873 1.24486 4.62158 1.04332 4.58428C1.0361 4.5829 1.02904 4.5806 1.02183 4.57983C0.993587 4.57692 0.991592 4.56586 0.99988 4.5387C1.0797 4.28006 1.15736 4.02097 1.2358 3.76187C1.25529 3.69771 1.27678 3.63416 1.29443 3.56954C1.30303 3.53823 1.31285 3.5436 1.33296 3.55957C1.50134 3.69249 1.67034 3.82465 1.83903 3.95696C1.93588 4.03294 2.03181 4.11014 2.13005 4.18428C2.15476 4.20285 2.15184 4.21268 2.13327 4.2314C2.02583 4.33946 1.91884 4.44829 1.81201 4.55696C1.7718 4.59779 1.73219 4.63923 1.69213 4.68037C1.68538 4.68728 1.6777 4.69311 1.67018 4.69956H1.67034Z" fill="#191B23"/>
<path d="M1.07227 4.82432C1.13336 4.82432 1.19214 4.84059 1.25155 4.85149C1.40841 4.8805 1.56513 4.91104 1.72169 4.94174C1.74242 4.94588 1.75638 4.93898 1.77004 4.9247C1.91402 4.77428 2.06368 4.62923 2.20474 4.47589C2.21026 4.46975 2.21809 4.46576 2.225 4.46085C2.24065 4.47328 2.23083 4.48801 2.22715 4.50075C2.17112 4.68909 2.11356 4.87681 2.05646 5.06484C2.01809 5.19086 1.98064 5.31718 1.94119 5.44289C1.92538 5.49339 1.91648 5.49631 1.87457 5.46346C1.62684 5.26914 1.37894 5.07512 1.13274 4.87911C1.11171 4.86238 1.08163 4.8544 1.07242 4.82447L1.07227 4.82432Z" fill="#191B23"/>
<path d="M6.4162 9.04763C6.39164 9.04364 6.37045 9.04057 6.34927 9.03674C5.74835 8.92591 5.14742 8.81509 4.5465 8.70412C4.52501 8.70013 4.50398 8.69307 4.48249 8.69092C4.39838 8.68232 4.39224 8.64932 4.4171 8.56843C4.65517 7.79744 4.88649 7.02445 5.12041 6.25222C5.17828 6.06097 5.24244 5.87141 5.29508 5.67877C5.32072 5.5853 5.35019 5.60157 5.4102 5.64884C5.91213 6.04516 6.4162 6.43902 6.91935 6.83381C7.20822 7.06036 7.49418 7.29076 7.78719 7.51163C7.86087 7.5672 7.85212 7.59651 7.79686 7.65192C7.47637 7.97441 7.15757 8.29859 6.83876 8.62277C6.71888 8.74464 6.60085 8.86835 6.48143 8.99054C6.46148 9.01095 6.4383 9.02829 6.4162 9.04748V9.04763Z" fill="#191B23"/>
<path d="M4.63492 9.42387C4.81712 9.42387 4.99225 9.47222 5.16938 9.50491C5.63738 9.59133 6.10431 9.68251 6.57139 9.77414C6.63324 9.78627 6.67484 9.76601 6.71567 9.72333C7.14514 9.27468 7.59119 8.84213 8.01192 8.38503C8.02865 8.36692 8.05182 8.35495 8.07208 8.34006C8.11875 8.3772 8.08958 8.42095 8.07822 8.45901C7.91122 9.02049 7.73977 9.58059 7.56924 10.141C7.45489 10.5169 7.34315 10.8936 7.22542 11.2684C7.17814 11.4191 7.15189 11.4277 7.0268 11.3295C6.28819 10.7502 5.54897 10.1717 4.81481 9.58688C4.75188 9.53684 4.66255 9.51336 4.63477 9.42387H4.63492Z" fill="#191B23"/>
<path d="M10.7695 12.2821C10.7778 12.2835 10.7849 12.2844 10.792 12.2858C10.9935 12.3229 11.195 12.3601 11.3966 12.3974C11.4038 12.3988 11.4108 12.4011 11.4181 12.4018C11.4463 12.4047 11.4483 12.4158 11.44 12.443C11.3602 12.7016 11.2825 12.9607 11.2041 13.2198C11.1846 13.284 11.1631 13.3475 11.1455 13.4121C11.1369 13.4434 11.127 13.4381 11.1069 13.4221C10.9385 13.2892 10.7695 13.157 10.6009 13.0247C10.504 12.9487 10.4081 12.8715 10.3098 12.7974C10.2851 12.7788 10.288 12.769 10.3066 12.7503C10.4141 12.6422 10.521 12.5334 10.6279 12.4247C10.6681 12.3839 10.7077 12.3424 10.7478 12.3013C10.7545 12.2944 10.7622 12.2886 10.7697 12.2821H10.7695Z" fill="#191B23"/>
<path d="M11.3669 12.1563C11.3058 12.1563 11.247 12.14 11.1876 12.1291C11.0307 12.1001 10.874 12.0696 10.7175 12.0389C10.6967 12.0347 10.6828 12.0417 10.6691 12.0559C10.5251 12.2064 10.3755 12.3514 10.2344 12.5047C10.2289 12.5109 10.2211 12.5149 10.2142 12.5198C10.1985 12.5074 10.2083 12.4926 10.212 12.4799C10.268 12.2915 10.3256 12.1038 10.3827 11.9158C10.4211 11.7898 10.4585 11.6634 10.498 11.5377C10.5138 11.4872 10.5227 11.4843 10.5646 11.5172C10.8123 11.7115 11.0602 11.9055 11.3064 12.1015C11.3274 12.1182 11.3575 12.1262 11.3667 12.1562L11.3669 12.1563Z" fill="#191B23"/>
</svg>
