<svg width="13" height="13" viewBox="0 0 13 13" fill="none" xmlns="http://www.w3.org/2000/svg">
<path d="M9.31836 2.13125L8.09336 0.90625C7.21836 0.03125 5.78086 0.03125 4.90586 0.90625L3.68086 2.13125C3.43711 2.375 3.43711 2.775 3.68086 3.01875L6.06211 5.4C6.30586 5.64375 6.69961 5.64375 6.94336 5.4L9.32461 3.01875C9.56211 2.775 9.56211 2.375 9.31836 2.13125Z" fill="white"/>
<path d="M2.13125 3.68126L0.90625 4.90626C0.03125 5.78126 0.03125 7.21876 0.90625 8.09376L2.13125 9.31876C2.375 9.56251 2.76875 9.56251 3.0125 9.31876L5.39375 6.93751C5.6375 6.69376 5.6375 6.30001 5.39375 6.05626L3.01875 3.68126C2.775 3.43751 2.375 3.43751 2.13125 3.68126Z" fill="white"/>
<path d="M12.0941 4.90626L10.8691 3.68126C10.6254 3.43751 10.2316 3.43751 9.98789 3.68126L7.60664 6.06251C7.36289 6.30626 7.36289 6.70001 7.60664 6.94376L9.98789 9.32501C10.2316 9.56876 10.6254 9.56876 10.8691 9.32501L12.0941 8.10001C12.9691 7.21876 12.9691 5.78126 12.0941 4.90626Z" fill="white"/>
<path d="M3.68165 10.8687L4.90665 12.0937C5.78165 12.9687 7.21915 12.9687 8.09415 12.0937L9.31915 10.8687C9.5629 10.625 9.5629 10.2312 9.31915 9.98749L6.9379 7.60624C6.69415 7.36249 6.3004 7.36249 6.05665 7.60624L3.6754 9.98749C3.4379 10.225 3.4379 10.625 3.68165 10.8687Z" fill="white"/>
</svg>
