<svg width="22" height="12" viewBox="0 0 22 12" fill="none" xmlns="http://www.w3.org/2000/svg">
<path d="M1.54102 5C0.988731 5 0.541016 5.44772 0.541016 6C0.541016 6.55228 0.988731 7 1.54102 7V5ZM20.0609 6L20.7578 6.7171C20.9516 6.52881 21.0609 6.27015 21.0609 6C21.0609 5.72985 20.9516 5.47119 20.7578 5.2829L20.0609 6ZM15.6134 0.2829C15.2174 -0.102026 14.5843 -0.0930139 14.1994 0.303029C13.8144 0.699073 13.8235 1.33217 14.2195 1.7171L15.6134 0.2829ZM14.2195 10.2829C13.8235 10.6678 13.8144 11.3009 14.1994 11.697C14.5843 12.093 15.2174 12.102 15.6134 11.7171L14.2195 10.2829ZM1.54102 7H20.0609V5H1.54102V7ZM20.7578 5.2829L15.6134 0.2829L14.2195 1.7171L19.3639 6.7171L20.7578 5.2829ZM19.3639 5.2829L14.2195 10.2829L15.6134 11.7171L20.7578 6.7171L19.3639 5.2829Z" fill="white"/>
</svg>
