<svg width="46" height="44" viewBox="0 0 46 44" fill="none" xmlns="http://www.w3.org/2000/svg">
<g filter="url(#filter0_d_119_8497)">
<path fill-rule="evenodd" clip-rule="evenodd" d="M24.0667 25C24.0667 24.0841 24.0667 23.0047 23 23.0047C23 21.2056 23.1333 20.5371 24.3333 19.1121L25.08 17.6468C25.2746 17.901 25.5844 18.0654 25.9333 18.0654C26.5224 18.0654 27 17.5968 27 17.0187C27 16.4406 26.5224 15.972 25.9333 15.972C25.3442 15.972 24.8667 16.4406 24.8667 17.0187C24.8667 17.2064 24.917 17.3826 25.0052 17.535C23.5763 17.4641 22.744 17.7031 21.2958 18.3271C20.3913 16.7841 19.9434 15.568 19.319 13.8725C19.2274 13.6238 19.1321 13.3649 19.0309 13.093C19.6057 13.077 20.0667 12.6147 20.0667 12.0467C20.0667 11.4686 19.5891 11 19 11C18.4109 11 17.9333 11.4686 17.9333 12.0467C17.9333 12.5734 18.3297 13.0092 18.8457 13.0826C18.7828 13.2634 18.7224 13.4381 18.6637 13.6076C18.0464 15.392 17.6282 16.6011 16.5708 18.3271C15.1638 17.7465 14.335 17.5464 12.9913 17.5409C13.0817 17.3872 13.1333 17.2089 13.1333 17.0187C13.1333 16.4406 12.6558 15.972 12.0667 15.972C11.4776 15.972 11 16.4406 11 17.0187C11 17.5968 11.4776 18.0654 12.0667 18.0654C12.369 18.0654 12.642 17.942 12.8361 17.7437L13.5333 19.1121C14.6211 20.307 14.8667 21.2056 14.8667 23.0047C13.9333 23.0374 13.8 24.0841 13.8 25H24.0667ZM20.6 20.9439L18.8667 19.1121L17.1333 20.9439L18.8667 22.7757L20.6 20.9439Z" fill="#5070EE"/>
</g>
<defs>
<filter id="filter0_d_119_8497" x="0" y="0" width="46" height="44" filterUnits="userSpaceOnUse" color-interpolation-filters="sRGB">
<feFlood flood-opacity="0" result="BackgroundImageFix"/>
<feColorMatrix in="SourceAlpha" type="matrix" values="0 0 0 0 0 0 0 0 0 0 0 0 0 0 0 0 0 0 127 0" result="hardAlpha"/>
<feOffset dx="4" dy="4"/>
<feGaussianBlur stdDeviation="7.5"/>
<feComposite in2="hardAlpha" operator="out"/>
<feColorMatrix type="matrix" values="0 0 0 0 0.313726 0 0 0 0 0.439216 0 0 0 0 0.933333 0 0 0 0.25 0"/>
<feBlend mode="normal" in2="BackgroundImageFix" result="effect1_dropShadow_119_8497"/>
<feBlend mode="normal" in="SourceGraphic" in2="effect1_dropShadow_119_8497" result="shape"/>
</filter>
</defs>
</svg>
