<svg width="21" height="21" viewBox="0 0 21 21" fill="none" xmlns="http://www.w3.org/2000/svg">
<path d="M14.875 19.25H6.125C5.76625 19.25 5.46875 18.9525 5.46875 18.5938C5.46875 18.235 5.76625 17.9375 6.125 17.9375H14.875C15.2338 17.9375 15.5312 18.235 15.5312 18.5938C15.5312 18.9525 15.2338 19.25 14.875 19.25Z" fill="white"/>
<path d="M17.8062 4.82918L14.3062 7.33168C13.8424 7.66418 13.1774 7.46293 12.9762 6.92918L11.3224 2.51918C11.0424 1.75793 9.9662 1.75793 9.6862 2.51918L8.0237 6.92043C7.82245 7.46293 7.1662 7.66418 6.70245 7.32293L3.20245 4.82043C2.50245 4.33043 1.57495 5.02168 1.8637 5.83543L5.5037 16.0292C5.6262 16.3792 5.9587 16.6067 6.3262 16.6067H14.6649C15.0324 16.6067 15.3649 16.3704 15.4874 16.0292L19.1274 5.83543C19.4249 5.02168 18.4974 4.33043 17.8062 4.82918ZM12.6874 12.9054H8.31245C7.9537 12.9054 7.6562 12.6079 7.6562 12.2492C7.6562 11.8904 7.9537 11.5929 8.31245 11.5929H12.6874C13.0462 11.5929 13.3437 11.8904 13.3437 12.2492C13.3437 12.6079 13.0462 12.9054 12.6874 12.9054Z" fill="white"/>
</svg>
