<svg width="28" height="27" viewBox="0 0 28 27" fill="none" xmlns="http://www.w3.org/2000/svg">
<path d="M13.0522 20.1286H10.5706C9.35736 20.1286 8.36472 21.1213 8.36472 22.3345V22.6103H7.26178C6.80957 22.6103 6.43457 22.9853 6.43457 23.4375C6.43457 23.8897 6.80957 24.2647 7.26178 24.2647H20.4971C20.9493 24.2647 21.3243 23.8897 21.3243 23.4375C21.3243 22.9853 20.9493 22.6103 20.4971 22.6103H19.3941V22.3345C19.3941 21.1213 18.4015 20.1286 17.1882 20.1286H14.7066V17.6029C14.4309 17.636 14.1552 17.647 13.8794 17.647C13.6037 17.647 13.328 17.636 13.0522 17.6029V20.1286Z" fill="#434652"/>
<path d="M21.0268 12.8383C21.7548 12.5626 22.3945 12.1103 22.9018 11.603C23.9276 10.467 24.6004 9.11034 24.6004 7.52211C24.6004 5.93387 23.354 4.68755 21.7658 4.68755H21.1482C20.4312 3.22064 18.9312 2.20593 17.1886 2.20593H10.5709C8.8283 2.20593 7.3283 3.22064 6.61139 4.68755H5.99374C4.4055 4.68755 3.15918 5.93387 3.15918 7.52211C3.15918 9.11034 3.83197 10.467 4.85771 11.603C5.36506 12.1103 6.00477 12.5626 6.73271 12.8383C7.87977 15.6618 10.6371 17.6471 13.8798 17.6471C17.1224 17.6471 19.8798 15.6618 21.0268 12.8383ZM17.0121 9.3199L16.3283 10.1581C16.218 10.2795 16.1408 10.5221 16.1518 10.6875L16.218 11.7684C16.2621 12.4302 15.7879 12.7721 15.1702 12.5295L14.1665 12.1324C14.0121 12.0773 13.7474 12.0773 13.593 12.1324L12.5893 12.5295C11.9717 12.7721 11.4974 12.4302 11.5415 11.7684L11.6077 10.6875C11.6187 10.5221 11.5415 10.2795 11.4312 10.1581L10.7474 9.3199C10.3173 8.81255 10.5048 8.25005 11.1445 8.08461L12.1923 7.8199C12.3577 7.77579 12.5562 7.62137 12.6445 7.47799L13.229 6.57358C13.593 6.01108 14.1665 6.01108 14.5305 6.57358L15.1151 7.47799C15.2033 7.62137 15.4018 7.77579 15.5673 7.8199L16.6151 8.08461C17.2548 8.25005 17.4423 8.81255 17.0121 9.3199Z" fill="#434652"/>
</svg>
