<svg width="23" height="18" viewBox="0 0 23 18" fill="none" xmlns="http://www.w3.org/2000/svg">
<path d="M19.5001 1.52023C22.0977 5.44291 23.3805 9.86758 22.901 14.9614C22.899 14.983 22.888 15.0027 22.8708 15.0157C20.9037 16.4993 18.9979 17.3996 17.1188 17.9967C17.1042 18.0013 17.0885 18.001 17.074 17.996C17.0595 17.991 17.0469 17.9814 17.038 17.9687C16.6039 17.3483 16.2094 16.6942 15.8638 16.0073C15.844 15.9669 15.8621 15.9181 15.903 15.9022C16.5294 15.6598 17.1251 15.3692 17.6981 15.0252C17.7432 14.998 17.7461 14.9316 17.7044 14.8997C17.5828 14.807 17.4623 14.7095 17.3471 14.6121C17.3255 14.594 17.2965 14.5905 17.272 14.6026C13.5521 16.367 9.47705 16.367 5.71311 14.6026C5.68867 14.5914 5.65963 14.5952 5.63864 14.6129C5.52364 14.7104 5.40289 14.807 5.28243 14.8997C5.24074 14.9316 5.24419 14.998 5.28962 15.0252C5.8626 15.3627 6.4583 15.6598 7.0839 15.9034C7.12444 15.9193 7.1437 15.9669 7.12358 16.0073C6.78548 16.6951 6.39103 17.3491 5.94885 17.9695C5.92959 17.9946 5.89797 18.0062 5.86807 17.9967C3.99788 17.3996 2.09205 16.4993 0.124977 15.0157C0.108589 15.0027 0.0968019 14.9821 0.0950769 14.9605C-0.305697 10.5544 0.511089 6.09315 3.49275 1.51935C3.49993 1.50724 3.51086 1.49779 3.52351 1.49218C4.99062 0.800604 6.56238 0.291813 8.20515 0.00124481C8.23505 -0.00347988 8.26495 0.0106942 8.28048 0.0378612C8.48345 0.406978 8.71546 0.880333 8.87244 1.26717C10.604 0.995497 12.3627 0.995497 14.1305 1.26717C14.2875 0.888601 14.5115 0.406978 14.7136 0.0378612C14.7208 0.0243839 14.7319 0.0135867 14.7454 0.00701094C14.759 0.000435179 14.7742 -0.0015829 14.7889 0.00124481C16.4325 0.292699 18.0043 0.80149 19.4702 1.49218C19.4832 1.49779 19.4938 1.50724 19.5001 1.52023ZM9.75276 9.89771C9.77087 8.59517 8.84627 7.51735 7.68564 7.51735C6.53449 7.51735 5.6188 8.58572 5.6188 9.89771C5.6188 11.2094 6.5526 12.2778 7.68564 12.2778C8.83708 12.2778 9.75276 11.2094 9.75276 9.89771ZM17.3951 9.89771C17.4132 8.59517 16.4886 7.51735 15.3282 7.51735C14.1768 7.51735 13.2611 8.58572 13.2611 9.89771C13.2611 11.2094 14.1949 12.2778 15.3282 12.2778C16.4886 12.2778 17.3951 11.2094 17.3951 9.89771Z" fill="white"/>
</svg>
