<svg width="27" height="26" viewBox="0 0 27 26" fill="none" xmlns="http://www.w3.org/2000/svg">
<path d="M19.1201 2.63245H8.28678C5.03678 2.63245 2.87012 4.79911 2.87012 8.04911V14.5491C2.87012 17.7991 5.03678 19.9658 8.28678 19.9658V22.2733C8.28678 23.1399 9.25095 23.6599 9.96595 23.1724L14.7868 19.9658H19.1201C22.3701 19.9658 24.5368 17.7991 24.5368 14.5491V8.04911C24.5368 4.79911 22.3701 2.63245 19.1201 2.63245ZM13.7034 15.8166C13.2484 15.8166 12.891 15.4483 12.891 15.0041C12.891 14.5599 13.2484 14.1916 13.7034 14.1916C14.1585 14.1916 14.5159 14.5599 14.5159 15.0041C14.5159 15.4483 14.1585 15.8166 13.7034 15.8166ZM15.0684 11.3208C14.646 11.6024 14.5159 11.7866 14.5159 12.0899V12.3174C14.5159 12.7616 14.1476 13.1299 13.7034 13.1299C13.2593 13.1299 12.891 12.7616 12.891 12.3174V12.0899C12.891 10.8333 13.8118 10.2158 14.1585 9.97745C14.5593 9.70661 14.6893 9.52245 14.6893 9.24078C14.6893 8.69911 14.2451 8.25495 13.7034 8.25495C13.1618 8.25495 12.7176 8.69911 12.7176 9.24078C12.7176 9.68495 12.3493 10.0533 11.9051 10.0533C11.4609 10.0533 11.0926 9.68495 11.0926 9.24078C11.0926 7.79995 12.2626 6.62995 13.7034 6.62995C15.1443 6.62995 16.3143 7.79995 16.3143 9.24078C16.3143 10.4758 15.4043 11.0933 15.0684 11.3208Z" fill="#434652"/>
</svg>