<svg width="24" height="25" viewBox="0 0 24 25" fill="none" xmlns="http://www.w3.org/2000/svg">
<path d="M8.00096 12.0039C8.00096 9.79416 9.79134 8.00231 12.0005 8.00231C14.2096 8.00231 16.001 9.79416 16.001 12.0039C16.001 14.2137 14.2096 16.0056 12.0005 16.0056C9.79134 16.0056 8.00096 14.2137 8.00096 12.0039ZM5.83838 12.0039C5.83838 15.4083 8.59714 18.1678 12.0005 18.1678C15.4038 18.1678 18.1626 15.4083 18.1626 12.0039C18.1626 8.59963 15.4038 5.84006 12.0005 5.84006C8.59714 5.84006 5.83838 8.59963 5.83838 12.0039ZM16.9665 5.59566C16.9664 5.88056 17.0507 6.1591 17.2088 6.39604C17.367 6.63299 17.5918 6.81771 17.8549 6.92684C18.118 7.03597 18.4075 7.06462 18.6869 7.00915C18.9663 6.95368 19.2229 6.81659 19.4244 6.61522C19.6259 6.41384 19.7631 6.15723 19.8188 5.87783C19.8745 5.59842 19.8461 5.30878 19.7372 5.04553C19.6283 4.78227 19.4438 4.55723 19.2071 4.39885C18.9703 4.24047 18.6919 4.15588 18.4071 4.15577H18.4065C18.0248 4.15594 17.6587 4.30769 17.3887 4.57766C17.1186 4.84764 16.9668 5.21378 16.9665 5.59566ZM7.15229 21.7749C5.98229 21.7216 5.34636 21.5266 4.92375 21.3619C4.36347 21.1437 3.96371 20.8839 3.54341 20.464C3.1231 20.0442 2.86293 19.6447 2.64577 19.0843C2.48103 18.6617 2.28614 18.0254 2.23295 16.8551C2.17477 15.5898 2.16316 15.2097 2.16316 12.004C2.16316 8.79841 2.17573 8.41938 2.23295 7.15301C2.28624 5.98267 2.48256 5.34761 2.64577 4.92383C2.86389 4.36339 3.12368 3.96351 3.54341 3.54308C3.96313 3.12266 4.36251 2.86241 4.92375 2.64519C5.34617 2.4804 5.98229 2.28546 7.15229 2.23225C8.41723 2.17406 8.79722 2.16244 12.0005 2.16244C15.2037 2.16244 15.5841 2.17502 16.8501 2.23225C18.0201 2.28555 18.655 2.48194 19.0787 2.64519C19.6389 2.86241 20.0387 3.12323 20.459 3.54308C20.8793 3.96293 21.1385 4.36339 21.3566 4.92383C21.5214 5.34637 21.7163 5.98267 21.7694 7.15301C21.8276 8.41938 21.8392 8.79841 21.8392 12.004C21.8392 15.2097 21.8276 15.5887 21.7694 16.8551C21.7162 18.0254 21.5203 18.6615 21.3566 19.0843C21.1385 19.6447 20.8787 20.0446 20.459 20.464C20.0393 20.8835 19.6389 21.1437 19.0787 21.3619C18.6562 21.5267 18.0201 21.7217 16.8501 21.7749C15.5852 21.8331 15.2052 21.8447 12.0005 21.8447C8.79578 21.8447 8.41685 21.8331 7.15229 21.7749ZM7.05292 0.0726959C5.7754 0.130891 4.90244 0.333518 4.14007 0.630255C3.35053 0.936692 2.68216 1.3478 2.01426 2.01484C1.34636 2.68187 0.936421 3.3515 0.630073 4.14127C0.333421 4.90433 0.130853 5.77707 0.0726749 7.05496C0.0135365 8.33487 0 8.74406 0 12.0039C0 15.2638 0.0135365 15.673 0.0726749 16.9529C0.130853 18.2309 0.333421 19.1036 0.630073 19.8666C0.936421 20.6559 1.34645 21.3263 2.01426 21.9931C2.68206 22.6598 3.35053 23.0703 4.14007 23.3776C4.90388 23.6744 5.7754 23.877 7.05292 23.9352C8.33313 23.9934 8.74153 24.0079 12.0005 24.0079C15.2594 24.0079 15.6685 23.9944 16.948 23.9352C18.2257 23.877 19.098 23.6744 19.8609 23.3776C20.6499 23.0703 21.3188 22.6601 21.9867 21.9931C22.6546 21.326 23.0637 20.6559 23.3709 19.8666C23.6675 19.1036 23.8711 18.2308 23.9283 16.9529C23.9865 15.6721 24 15.2638 24 12.0039C24 8.74406 23.9865 8.33487 23.9283 7.05496C23.8701 5.77697 23.6675 4.90385 23.3709 4.14127C23.0637 3.35198 22.6535 2.68293 21.9867 2.01484C21.3199 1.34675 20.6499 0.936692 19.8619 0.630255C19.098 0.333518 18.2256 0.129931 16.949 0.0726959C15.6695 0.0145008 15.2604 0 12.0014 0C8.74249 0 8.33313 0.0135405 7.05292 0.0726959Z" fill="white"/>
</svg>
