<svg width="19" height="19" viewBox="0 0 19 19" fill="none" xmlns="http://www.w3.org/2000/svg">
<path d="M15.3343 3.87211L10.6952 1.80586C10.0143 1.50502 8.98517 1.50502 8.30434 1.80586L3.66517 3.87211C2.4935 4.39461 2.31934 5.10711 2.31934 5.48711C2.31934 5.86711 2.4935 6.57961 3.66517 7.10211L8.30434 9.16836C8.64475 9.31877 9.07225 9.39794 9.49975 9.39794C9.92725 9.39794 10.3548 9.31877 10.6952 9.16836L15.3343 7.10211C16.506 6.57961 16.6802 5.86711 16.6802 5.48711C16.6802 5.10711 16.5139 4.39461 15.3343 3.87211Z" fill="white"/>
<path d="M9.50025 13.49C9.19941 13.49 8.89858 13.4267 8.6215 13.3079L3.28566 10.9329C2.47025 10.5688 1.83691 9.59501 1.83691 8.70043C1.83691 8.37584 2.09816 8.11459 2.42275 8.11459C2.74733 8.11459 3.00858 8.37584 3.00858 8.70043C3.00858 9.12793 3.36483 9.68209 3.76066 9.85626L9.0965 12.2313C9.34983 12.3421 9.64275 12.3421 9.89608 12.2313L15.2319 9.85626C15.6277 9.68209 15.984 9.13584 15.984 8.70043C15.984 8.37584 16.2452 8.11459 16.5698 8.11459C16.8944 8.11459 17.1557 8.37584 17.1557 8.70043C17.1557 9.58709 16.5223 10.5688 15.7069 10.9329L10.3711 13.3079C10.1019 13.4267 9.80108 13.49 9.50025 13.49Z" fill="white"/>
<path d="M9.50025 17.4174C9.19941 17.4174 8.89858 17.3541 8.6215 17.2353L3.28566 14.8603C2.40691 14.4724 1.83691 13.5937 1.83691 12.6278C1.83691 12.3032 2.09816 12.042 2.42275 12.042C2.74733 12.042 3.00858 12.3032 3.00858 12.6278C3.00858 13.1266 3.3015 13.5778 3.76066 13.7837L9.0965 16.1587C9.34983 16.2695 9.64275 16.2695 9.89608 16.1587L15.2319 13.7837C15.6832 13.5857 15.984 13.1266 15.984 12.6278C15.984 12.3032 16.2452 12.042 16.5698 12.042C16.8944 12.042 17.1557 12.3032 17.1557 12.6278C17.1557 13.5937 16.5857 14.4645 15.7069 14.8603L10.3711 17.2353C10.1019 17.3541 9.80108 17.4174 9.50025 17.4174Z" fill="white"/>
</svg>
