<svg width="15" height="15" viewBox="0 0 15 15" fill="none" xmlns="http://www.w3.org/2000/svg">
<path d="M8.4375 2.5625L8.4375 12.4375C8.4375 13.375 8.8375 13.75 9.83125 13.75L12.3563 13.75C13.35 13.75 13.75 13.375 13.75 12.4375L13.75 2.5625C13.75 1.625 13.35 1.25 12.3563 1.25L9.83125 1.25C8.8375 1.25 8.4375 1.625 8.4375 2.5625Z" fill="#5E5F65"/>
<path d="M1.25 6.9375L1.25 12.4375C1.25 13.375 1.65 13.75 2.64375 13.75L5.16875 13.75C6.1625 13.75 6.5625 13.375 6.5625 12.4375L6.5625 6.9375C6.5625 6 6.1625 5.625 5.16875 5.625L2.64375 5.625C1.65 5.625 1.25 6 1.25 6.9375Z" fill="#5E5F65"/>
</svg>
