<svg width="16" height="19" viewBox="0 0 16 19" fill="none" xmlns="http://www.w3.org/2000/svg">
<path d="M14.45 8.65675C14.45 14.0356 8.94085 17.3493 7.79596 17.9805C7.73253 18.0155 7.66128 18.0339 7.58885 18.0339C7.51641 18.0339 7.44516 18.0155 7.38174 17.9805C6.23599 17.3493 0.728516 14.0356 0.728516 8.65675C0.728516 4.36877 3.3013 1.36719 7.58928 1.36719C11.8773 1.36719 14.45 4.36877 14.45 8.65675Z" stroke="white" stroke-width="1.4" stroke-linecap="round" stroke-linejoin="round"/>
<path d="M4.16016 8.22726C4.16016 9.13705 4.52157 10.0096 5.16489 10.6529C5.80821 11.2962 6.68074 11.6576 7.59054 11.6576C8.50033 11.6576 9.37286 11.2962 10.0162 10.6529C10.6595 10.0096 11.0209 9.13705 11.0209 8.22726C11.0209 7.31746 10.6595 6.44493 10.0162 5.80161C9.37286 5.15829 8.50033 4.79688 7.59054 4.79688C6.68074 4.79688 5.80821 5.15829 5.16489 5.80161C4.52157 6.44493 4.16016 7.31746 4.16016 8.22726V8.22726Z" stroke="white" stroke-width="1.4" stroke-linecap="round" stroke-linejoin="round"/>
</svg>
