<svg width="161" height="40" viewBox="0 0 161 40" fill="none" xmlns="http://www.w3.org/2000/svg">
<path d="M41.9218 6.71324L24.4444 0.107998C23.5841 -0.217241 22.622 0.2169 22.2964 1.07748L21.9473 2.00113L21.1139 4.20483L21.0046 4.4945L16.8286 15.5442C17.1637 15.8071 17.4981 16.0693 17.8325 16.3318C18.5226 16.8734 19.2057 17.4237 19.9061 17.9514C20.0817 18.0838 20.0608 18.1534 19.9288 18.2865C19.1632 19.0569 18.402 19.8313 17.6404 20.6061C17.3544 20.8969 17.072 21.1928 16.7871 21.4846C16.7395 21.533 16.6841 21.5745 16.6313 21.6203C16.5723 21.6108 16.5217 21.6034 16.4714 21.5943C15.8701 21.4832 15.2691 21.3724 14.6678 21.2613L14.0895 22.7918C15.0612 22.9733 16.0322 23.1629 17.002 23.3532C17.1498 23.3825 17.2488 23.3341 17.3467 23.2318C18.3726 22.1601 19.4382 21.1268 20.4436 20.0352C20.4832 19.9915 20.5389 19.9629 20.5873 19.9274C20.6988 20.0161 20.6291 20.1203 20.602 20.2116C20.2027 21.5528 19.7931 22.8908 19.3861 24.2296C19.1133 25.1275 18.846 26.0277 18.5648 26.9228C18.4522 27.2825 18.3891 27.3037 18.0903 27.0691C16.6452 25.9357 15.1994 24.8038 13.7599 23.6634L11.693 29.1323C11.3677 29.9936 11.8019 30.9554 12.6628 31.2807L23.7308 35.4633L25.8835 36.2769L26.0207 36.3294L30.1395 37.8859C31.0008 38.2111 31.9626 37.777 32.2882 36.9161L42.8913 8.8612C43.2173 8.00026 42.7824 7.03884 41.9218 6.71324ZM25.7009 29.8081C25.8344 29.3582 25.9723 28.9094 26.1083 28.4602C26.2 28.1592 26.2895 27.8574 26.3841 27.5571C26.4222 27.4365 26.4431 27.4295 26.5436 27.5083C27.135 27.9725 27.7272 28.436 28.3153 28.9043C28.3659 28.9446 28.4371 28.9633 28.4594 29.0352C28.3135 29.0352 28.1734 28.9963 28.0315 28.9703C27.6568 28.901 27.2824 28.828 26.9084 28.7547C26.8589 28.7451 26.8259 28.7613 26.7933 28.7954C26.449 29.1547 26.0918 29.5016 25.7548 29.8675C25.7413 29.8822 25.7226 29.8921 25.7064 29.9038C25.6694 29.8741 25.6918 29.8389 25.7009 29.8081ZM25.9268 30.4534C26.1835 30.1949 26.4387 29.9353 26.6943 29.6757C26.7903 29.5778 26.8846 29.4788 26.9803 29.3809C26.9964 29.3648 27.0147 29.3509 27.0327 29.3355C27.0525 29.3384 27.0694 29.341 27.0866 29.3443C27.568 29.433 28.0491 29.5217 28.5309 29.6108C28.5478 29.6138 28.565 29.6196 28.5819 29.6215C28.649 29.6284 28.6545 29.6552 28.6343 29.7197C28.444 30.3372 28.2581 30.9565 28.0707 31.5755C28.0245 31.7287 27.9728 31.8802 27.931 32.0345C27.9105 32.1097 27.887 32.0965 27.839 32.0587C27.4368 31.7412 27.0327 31.4259 26.6297 31.1098C26.3984 30.9279 26.1696 30.7435 25.9345 30.5664C25.8755 30.5224 25.8821 30.4978 25.9268 30.4534Z" fill="#F7931A"/>
<path d="M24.7876 5.60682C24.7008 5.62148 24.6143 5.61965 24.5586 5.60939C24.2838 5.57238 24.0589 5.47785 23.8317 5.38991C23.8009 5.37782 23.7906 5.36426 23.8042 5.32909C23.9101 5.06125 24.0145 4.79267 24.1178 4.52373C24.1292 4.49405 24.1406 4.48599 24.1721 4.49772C24.4099 4.58529 24.6499 4.6681 24.8598 4.81539C24.9254 4.86119 24.9855 4.91322 25.0339 4.97697C25.2204 5.2232 25.091 5.55443 24.7873 5.60682H24.7876Z" fill="#F6921A"/>
<path d="M24.3099 4.02802C24.403 3.79243 24.4949 3.55646 24.5862 3.32013C24.5968 3.29302 24.6034 3.26664 24.6419 3.28129C24.8511 3.3597 25.0643 3.42969 25.2424 3.57295C25.4 3.69973 25.4538 3.84922 25.4018 4.01117C25.3454 4.18704 25.2003 4.28157 24.9973 4.27241C24.9603 4.27058 24.9233 4.26325 24.8863 4.25886C24.6917 4.23541 24.5122 4.16213 24.3323 4.08995C24.296 4.07566 24.2982 4.05807 24.3099 4.02802Z" fill="#F6921A"/>
<path d="M26.0053 4.52387C26.313 4.22943 26.3225 3.74836 26.0266 3.44439C25.8964 3.31092 25.7424 3.20972 25.5763 3.12905C25.5114 3.09715 25.5052 3.06781 25.5319 3.00401C25.6034 2.83461 25.6654 2.66118 25.7347 2.49031C25.7534 2.44264 25.7556 2.41734 25.6966 2.399C25.6001 2.36857 25.5044 2.3308 25.4117 2.28864C25.3633 2.26627 25.3486 2.27984 25.3317 2.32457C25.2668 2.49984 25.1953 2.67218 25.1312 2.84744C25.1106 2.90391 25.0853 2.91161 25.0344 2.88851C24.9779 2.86321 24.9192 2.84048 24.8598 2.82361C24.7949 2.80674 24.7814 2.78034 24.8089 2.71471C24.8811 2.54531 24.9423 2.37114 25.012 2.201C25.0303 2.15443 25.0208 2.13463 24.9761 2.1185C24.88 2.08367 24.785 2.047 24.6908 2.0074C24.645 1.9887 24.6222 1.9964 24.6043 2.04553C24.5375 2.2252 24.4642 2.4023 24.3989 2.58271C24.3777 2.63991 24.356 2.64504 24.3025 2.62341C24.0763 2.53174 23.8478 2.44594 23.6212 2.35647C23.5754 2.33777 23.5504 2.34107 23.5325 2.3924C23.4943 2.50057 23.4547 2.60764 23.4093 2.71288C23.3895 2.75871 23.4027 2.77044 23.4452 2.78548C23.5365 2.81738 23.6274 2.85258 23.7151 2.89328C23.8353 2.95011 23.8801 3.05865 23.8342 3.17892C23.6073 3.76339 23.3796 4.3475 23.1508 4.93124C23.1431 4.95141 23.1343 4.96865 23.1247 4.98368C23.0811 5.05005 23.0158 5.06581 22.9245 5.03355C22.8468 5.00605 22.7698 4.97781 22.6957 4.94298C22.6532 4.92318 22.6349 4.93381 22.614 4.97085C22.5483 5.08561 22.4831 5.20002 22.4112 5.31075C22.3749 5.36722 22.3925 5.38115 22.4457 5.40169C22.669 5.48602 22.8893 5.57842 23.1134 5.66129C23.1823 5.68622 23.1838 5.71336 23.1592 5.77276C23.0881 5.94473 23.0268 6.1211 22.9535 6.29343C22.9267 6.3554 22.9447 6.37373 23.0008 6.39207C23.0859 6.4203 23.1713 6.45074 23.2509 6.49034C23.3202 6.5248 23.3418 6.5017 23.3649 6.43754C23.3994 6.34147 23.4364 6.24613 23.4738 6.15116C23.5042 6.0727 23.5354 5.99386 23.5651 5.91503C23.5812 5.87176 23.5985 5.85526 23.6458 5.87836C23.7129 5.91063 23.7833 5.93629 23.8537 5.96086C23.8995 5.97699 23.9079 5.99753 23.8885 6.04336C23.8148 6.2256 23.7466 6.4104 23.6733 6.59227C23.6568 6.63371 23.6604 6.65167 23.7066 6.66634C23.8053 6.69971 23.9032 6.73784 23.9985 6.78001C24.0444 6.80017 24.0623 6.79357 24.0799 6.74591C24.15 6.55927 24.2255 6.37557 24.2952 6.18893C24.3128 6.14236 24.3304 6.13576 24.3769 6.1497C24.5933 6.21826 24.8133 6.2729 25.0428 6.27473C25.3171 6.27657 25.5506 6.18636 25.7259 5.96819C25.8168 5.85416 25.8836 5.72656 25.9298 5.58869C26.042 5.25135 25.9646 4.98771 25.6907 4.76147C25.6683 4.74314 25.6397 4.73214 25.6243 4.69841C25.6933 4.68191 25.7615 4.67054 25.8249 4.64267C25.892 4.61334 25.9525 4.57484 26.0053 4.5246V4.52387ZM25.1176 5.28068C25.1172 5.28618 25.1161 5.29168 25.115 5.29682C25.115 5.29902 25.1147 5.30085 25.1136 5.30232C25.1121 5.30965 25.111 5.31662 25.1088 5.32432C25.1062 5.33532 25.1026 5.34558 25.0989 5.35585C25.0952 5.36648 25.0912 5.37638 25.0861 5.38629C25.0677 5.42589 25.0421 5.46329 25.0102 5.49445C25.0025 5.50215 24.994 5.51022 24.9849 5.51755C24.9673 5.53185 24.9486 5.54505 24.928 5.55679C24.9277 5.55715 24.9277 5.55679 24.9277 5.55679C24.9071 5.56852 24.8851 5.57879 24.862 5.58686C24.8389 5.59529 24.814 5.60189 24.7883 5.60592C24.7014 5.62096 24.6149 5.61912 24.5592 5.60849C24.4217 5.59016 24.2966 5.55679 24.1775 5.51755C24.1181 5.49849 24.0601 5.47685 24.0029 5.45522C23.974 5.44422 23.9457 5.43285 23.9175 5.42185C23.8892 5.41085 23.8606 5.39985 23.8324 5.38922C23.8298 5.38849 23.8273 5.38702 23.8247 5.38555C23.8225 5.38482 23.8203 5.38335 23.8181 5.38189C23.8166 5.38115 23.8155 5.38042 23.8144 5.37968C23.8119 5.37785 23.8097 5.37602 23.8075 5.37418C23.799 5.36648 23.7968 5.35658 23.8005 5.34192C23.8012 5.33752 23.8027 5.33312 23.8049 5.32798C23.9109 5.05995 24.0154 4.79118 24.1188 4.52204C24.1302 4.49234 24.1415 4.48464 24.1731 4.496C24.411 4.58364 24.6508 4.66687 24.8613 4.81391C24.8664 4.81758 24.8712 4.82088 24.8767 4.82491C24.8818 4.82858 24.8866 4.83224 24.8917 4.83628C24.9016 4.84361 24.9119 4.85168 24.9218 4.85974C24.931 4.86708 24.9401 4.87514 24.9493 4.88321C24.9585 4.89128 24.9676 4.89971 24.9764 4.90851C24.9907 4.92244 25.0043 4.93674 25.0171 4.95215C25.0237 4.95985 25.03 4.96791 25.0358 4.97561C25.0505 4.99541 25.0633 5.01521 25.0743 5.03575C25.078 5.04198 25.0813 5.04858 25.0839 5.05481C25.0846 5.05555 25.0853 5.05701 25.0857 5.05775C25.0857 5.05811 25.0861 5.05811 25.0857 5.05848C25.0894 5.06618 25.0927 5.07388 25.0956 5.08158C25.0985 5.08928 25.1011 5.09735 25.104 5.10505C25.1081 5.11678 25.111 5.12851 25.1136 5.14025C25.1143 5.14391 25.115 5.14721 25.1158 5.15088C25.1165 5.15528 25.1176 5.16005 25.118 5.16445C25.1194 5.17105 25.1202 5.17801 25.1205 5.18498C25.1209 5.18865 25.1213 5.19195 25.1213 5.19598C25.1235 5.22385 25.1227 5.25172 25.1183 5.27885L25.1176 5.28068ZM25.4208 3.91446C25.4208 3.9185 25.4205 3.92216 25.4201 3.9262C25.4197 3.9339 25.4186 3.94196 25.4175 3.94966C25.4172 3.9526 25.4168 3.9559 25.4157 3.95883C25.4142 3.96726 25.4128 3.97496 25.4109 3.9834C25.4087 3.9933 25.4058 4.0032 25.4025 4.0131C25.3988 4.02373 25.3955 4.034 25.3911 4.04353C25.3867 4.05343 25.3823 4.06333 25.3779 4.0725C25.3735 4.08203 25.3688 4.09083 25.3633 4.09963C25.3581 4.1088 25.3526 4.11723 25.3468 4.12493C25.331 4.1473 25.3127 4.16747 25.2925 4.18433C25.2885 4.18727 25.2848 4.19093 25.2808 4.19387C25.2804 4.1946 25.2793 4.19533 25.2789 4.19533C25.2742 4.19973 25.269 4.20377 25.2635 4.2067C25.2613 4.20853 25.2591 4.21037 25.2566 4.2111C25.2511 4.21587 25.2448 4.21953 25.2382 4.22283C25.2316 4.22687 25.2247 4.23053 25.2177 4.23383C25.2133 4.23603 25.2089 4.23823 25.2041 4.24007C25.1975 4.243 25.1906 4.2463 25.1836 4.2485C25.1829 4.24887 25.1814 4.24923 25.1799 4.24997C25.1715 4.25363 25.1631 4.2562 25.1543 4.2584C25.1447 4.26097 25.1352 4.26353 25.1253 4.26573C25.1183 4.2672 25.1114 4.2683 25.104 4.2694C25.0978 4.27087 25.0919 4.2716 25.0853 4.27197C25.0765 4.27343 25.067 4.27417 25.0575 4.27453C25.0465 4.27527 25.0351 4.276 25.0234 4.276C25.0149 4.276 25.0058 4.276 24.9973 4.27563C24.9603 4.2738 24.9236 4.26647 24.8862 4.2617C24.6915 4.2386 24.5119 4.16527 24.3322 4.09266C24.2959 4.07836 24.2977 4.06113 24.3095 4.0307C24.4026 3.79529 24.4946 3.55916 24.5863 3.32229C24.5969 3.29515 24.6032 3.26912 24.6417 3.28342C24.6677 3.29332 24.6941 3.30322 24.7201 3.31275C24.7359 3.31825 24.752 3.32449 24.7678 3.33035C24.7935 3.34025 24.8188 3.35015 24.8441 3.36005C24.8584 3.36555 24.8723 3.37142 24.8866 3.37692C24.9365 3.39709 24.9856 3.41872 25.0333 3.44329C25.0428 3.44769 25.0523 3.45245 25.0615 3.45759C25.0754 3.46492 25.0894 3.47225 25.1026 3.48032C25.1147 3.48692 25.126 3.49389 25.1374 3.50122C25.1378 3.50122 25.1381 3.50159 25.1389 3.50196C25.1506 3.50892 25.1623 3.51699 25.1737 3.52469C25.1851 3.53202 25.1964 3.54009 25.2078 3.54889C25.2195 3.55732 25.2309 3.56576 25.2423 3.57492C25.2558 3.58592 25.2683 3.59692 25.2804 3.60756C25.2819 3.60902 25.283 3.61012 25.2844 3.61159C25.2921 3.61892 25.3002 3.62699 25.3075 3.63469C25.316 3.64349 25.3237 3.65266 25.3306 3.66146C25.3343 3.66586 25.3376 3.67026 25.3413 3.67466C25.342 3.67502 25.3427 3.67539 25.3431 3.67649C25.3453 3.67942 25.3479 3.68272 25.3497 3.68566C25.3504 3.68639 25.3515 3.68749 25.3515 3.68822C25.3636 3.70509 25.3743 3.72306 25.3834 3.74066C25.3864 3.74689 25.3889 3.75276 25.3922 3.75899C25.3948 3.76523 25.3974 3.77109 25.3996 3.77696C25.4032 3.78613 25.4062 3.79529 25.4087 3.80446C25.4113 3.81363 25.4135 3.82279 25.4153 3.83233C25.4197 3.85579 25.4219 3.87999 25.4216 3.90383C25.4216 3.90786 25.4216 3.91153 25.4212 3.91519L25.4208 3.91446Z" fill="white"/>
<path d="M25.0342 4.97697C25.2207 5.2232 25.0914 5.55443 24.7876 5.60682C24.7008 5.62148 24.6143 5.61965 24.5586 5.60939C24.2838 5.57238 24.0589 5.47785 23.8317 5.38991C23.8009 5.37782 23.7906 5.36426 23.8042 5.32909C23.9101 5.06125 24.0145 4.79267 24.1178 4.52373C24.1292 4.49405 24.1406 4.48599 24.1721 4.49772C24.4099 4.58529 24.6499 4.6681 24.8598 4.81539C24.9254 4.86119 24.9855 4.91322 25.0339 4.97697H25.0342Z" fill="#F7931A"/>
<path d="M25.4018 4.01117C25.3454 4.18704 25.2003 4.28157 24.9973 4.27241C24.9603 4.27058 24.9233 4.26325 24.8863 4.25886C24.6917 4.23541 24.5122 4.16213 24.3323 4.08995C24.296 4.07566 24.2982 4.05807 24.3099 4.02802C24.403 3.79243 24.4949 3.55646 24.5862 3.32013C24.5968 3.29302 24.6034 3.26664 24.6419 3.28129C24.8511 3.3597 25.0643 3.42969 25.2424 3.57295C25.4 3.69973 25.4538 3.84922 25.4018 4.01117Z" fill="#F7931A"/>
<path d="M28.5723 22.3589C28.3325 22.4 28.092 22.3945 27.938 22.3659C27.1771 22.2632 26.5538 22.0021 25.9257 21.7583C25.8403 21.7249 25.812 21.6868 25.8502 21.5904C26.1435 20.8486 26.4321 20.105 26.7184 19.3606C26.75 19.2781 26.7815 19.2561 26.8688 19.2884C27.5273 19.5311 28.1914 19.7603 28.7729 20.1677C28.954 20.2949 29.1205 20.4383 29.2554 20.6154C29.7724 21.2967 29.4135 22.2148 28.5727 22.3589H28.5723Z" fill="#F6921A"/>
<path d="M27.248 17.9944C27.5054 17.3425 27.7602 16.6887 28.0132 16.0346C28.0422 15.9598 28.0605 15.8868 28.1676 15.9271C28.7473 16.1442 29.3376 16.3386 29.8301 16.7346C30.2668 17.0855 30.4153 17.4998 30.2716 17.9482C30.1154 18.4348 29.7131 18.6966 29.1514 18.6721C29.0487 18.6673 28.9464 18.6471 28.8437 18.6343C28.3047 18.5698 27.8082 18.3666 27.3099 18.1668C27.2095 18.1268 27.215 18.0788 27.248 17.9948V17.9944Z" fill="#F6921A"/>
<path d="M31.9405 19.3597C32.7909 18.5453 32.8176 17.2136 31.9992 16.3728C31.6402 16.0032 31.2134 15.7238 30.754 15.5001C30.574 15.4125 30.556 15.3307 30.6308 15.1551C30.8281 14.6865 31.0008 14.2058 31.1911 13.7331C31.2435 13.6015 31.249 13.5318 31.0866 13.4809C30.8185 13.3962 30.5542 13.292 30.2982 13.1754C30.1633 13.1142 30.1237 13.1512 30.0771 13.2744C29.8963 13.7584 29.6998 14.2358 29.522 14.7209C29.4651 14.8764 29.3958 14.8984 29.2539 14.8346C29.0977 14.7642 28.9357 14.7015 28.7699 14.6546C28.5899 14.6065 28.5525 14.5339 28.6299 14.3528C28.8282 13.8842 28.9984 13.4024 29.1912 12.9319C29.2422 12.8032 29.2154 12.749 29.0922 12.7039C28.8271 12.6071 28.5642 12.5055 28.3032 12.397C28.1767 12.3445 28.114 12.3669 28.0637 12.5018C27.8785 12.9987 27.6758 13.4893 27.4954 13.988C27.4367 14.1471 27.3773 14.1603 27.2281 14.1002C26.7111 13.8904 26.1889 13.6928 25.6697 13.49C25.5608 13.4475 25.4523 13.405 25.3437 13.3621C25.2172 13.3111 25.1476 13.3195 25.0988 13.4618C24.9936 13.761 24.8825 14.0569 24.7574 14.3484C24.7028 14.476 24.7391 14.5083 24.8561 14.5497C25.1098 14.6373 25.3606 14.7349 25.6037 14.8482C25.9359 15.0051 26.0606 15.3062 25.9326 15.6384C25.3045 17.2558 24.6753 18.8724 24.0424 20.4869C23.9255 20.789 23.7241 20.8781 23.4158 20.7688C23.2016 20.6933 22.989 20.6137 22.7829 20.5191C22.6663 20.4645 22.6157 20.4935 22.5567 20.5965C22.3763 20.9137 22.1948 21.2305 21.9964 21.5363C21.8959 21.6914 21.944 21.7306 22.0921 21.7875C22.7099 22.0207 23.3193 22.277 23.9401 22.505C24.1312 22.574 24.1348 22.6488 24.0666 22.8138C23.8701 23.2897 23.6996 23.7778 23.4972 24.2537C23.4242 24.4253 23.473 24.4763 23.6277 24.5272C23.8635 24.6064 24.0989 24.6889 24.3204 24.7986C24.5118 24.8943 24.5719 24.8308 24.6357 24.6526C24.811 24.1661 25.0075 23.6887 25.1894 23.2061C25.2345 23.0866 25.2803 23.0411 25.4127 23.1042C25.5982 23.1936 25.7929 23.2648 25.9883 23.333C26.1149 23.3781 26.1372 23.4342 26.0848 23.5618C25.8805 24.066 25.6921 24.576 25.4886 25.0809C25.4427 25.1957 25.4534 25.2441 25.5802 25.2859C25.8541 25.3779 26.124 25.4846 26.3873 25.6005C26.5149 25.6555 26.5637 25.6375 26.6128 25.5062C26.8057 24.99 27.0154 24.4818 27.2086 23.9659C27.2563 23.8364 27.3065 23.8177 27.4345 23.8566C27.9038 24.0051 28.3791 24.1305 28.8693 24.1789C29.0042 24.1928 29.1399 24.2009 29.277 24.2016C30.036 24.2064 30.6825 23.9589 31.1669 23.3539C31.4188 23.0389 31.6032 22.6862 31.7312 22.3045C32.0425 21.3713 31.8291 20.6412 31.0701 20.015C31.0088 19.9647 30.9289 19.9347 30.8871 19.8412C31.0785 19.7953 31.2666 19.7638 31.4422 19.6861C31.6274 19.6047 31.795 19.4991 31.9409 19.3597H31.9405ZM29.4945 21.3405C29.4945 21.3497 29.4941 21.3592 29.493 21.3684C29.4926 21.3794 29.4915 21.3907 29.4904 21.4017C29.4904 21.4032 29.4904 21.4047 29.4901 21.4065C29.4893 21.4179 29.4879 21.4296 29.486 21.441C29.4842 21.4564 29.4816 21.4714 29.4791 21.4864C29.4769 21.4993 29.4747 21.5114 29.4717 21.5238C29.4688 21.5374 29.4655 21.551 29.4622 21.5642C29.4604 21.5719 29.4582 21.5799 29.456 21.5873C29.4486 21.6144 29.4398 21.6412 29.4303 21.6672C29.4237 21.6848 29.4167 21.702 29.4094 21.7196C29.405 21.7295 29.4006 21.7398 29.3958 21.7497C29.3896 21.7625 29.3837 21.7754 29.3768 21.7886C29.3698 21.8021 29.3628 21.8153 29.3548 21.8282C29.3416 21.8513 29.3273 21.8736 29.3119 21.896C29.3056 21.9052 29.299 21.9143 29.2928 21.9231C29.2858 21.9327 29.2789 21.9422 29.2715 21.9514C29.2653 21.9598 29.2587 21.9675 29.2517 21.9756C29.2451 21.9833 29.2385 21.9913 29.2312 21.999C29.2257 22.006 29.2195 22.0126 29.2132 22.0192C29.2059 22.0276 29.1978 22.0357 29.1898 22.0438C29.1835 22.05 29.1777 22.0559 29.1714 22.0617C29.1615 22.0713 29.1513 22.0808 29.141 22.09C29.1348 22.0951 29.1289 22.101 29.1227 22.1057C29.1109 22.1156 29.0992 22.1255 29.0867 22.1351L29.0761 22.1428C29.064 22.1519 29.0515 22.1607 29.0391 22.1695C29.027 22.1787 29.0138 22.1871 29.0006 22.1952C28.9734 22.2128 28.9452 22.2289 28.9155 22.2436C28.8862 22.259 28.8561 22.2726 28.8246 22.285C28.7934 22.2979 28.7611 22.3096 28.7281 22.3195C28.7116 22.3246 28.6944 22.3294 28.6775 22.3334C28.6434 22.3426 28.6086 22.3499 28.5727 22.3562C28.5573 22.3587 28.5426 22.3609 28.5272 22.3631C28.5118 22.3657 28.4968 22.3675 28.4817 22.3694C28.4616 22.3719 28.4414 22.3741 28.4216 22.376C28.3912 22.3789 28.3607 22.3811 28.3318 22.3826C28.279 22.3855 28.2284 22.3866 28.18 22.3851C28.1543 22.3848 28.1294 22.3833 28.1048 22.3822H28.1033C28.0729 22.38 28.0432 22.3774 28.0157 22.3745C27.9882 22.3708 27.9618 22.3672 27.9383 22.3628C27.7007 22.3305 27.4767 22.2832 27.2614 22.226C27.2438 22.2212 27.2266 22.2168 27.209 22.2117C27.2002 22.2095 27.1921 22.2073 27.1837 22.2047C27.1452 22.1941 27.1074 22.1827 27.0693 22.1714C27.0275 22.1593 26.9857 22.1461 26.945 22.1325C26.916 22.1233 26.8874 22.1142 26.8596 22.1046C26.8343 22.0969 26.8097 22.0885 26.7848 22.0793C26.7807 22.0786 26.7774 22.0771 26.7738 22.0753C26.7433 22.0654 26.7129 22.0548 26.6832 22.0438C26.663 22.0368 26.6436 22.0298 26.6234 22.0225C26.5882 22.0104 26.553 21.9972 26.5182 21.984C26.4383 21.9543 26.3587 21.9242 26.2802 21.8934C26.1618 21.848 26.0445 21.8018 25.9264 21.7559C25.9117 21.7504 25.8981 21.7442 25.8868 21.7376H25.8864C25.8809 21.7347 25.8758 21.7314 25.871 21.7277C25.8662 21.7248 25.8618 21.7211 25.8578 21.7167C25.8538 21.7127 25.8505 21.709 25.8472 21.7046C25.8442 21.7002 25.8417 21.6958 25.8402 21.691C25.8384 21.6866 25.8365 21.6822 25.8358 21.6775C25.834 21.6679 25.8336 21.6577 25.8351 21.6459C25.8354 21.6412 25.8365 21.636 25.8376 21.6302C25.8391 21.6236 25.8406 21.617 25.8428 21.61C25.845 21.603 25.8475 21.5957 25.8505 21.5876C25.9304 21.3849 26.0104 21.1824 26.0896 20.9793C26.1394 20.8532 26.1886 20.727 26.2381 20.6002C26.3268 20.3721 26.4155 20.144 26.5035 19.9163C26.5758 19.7304 26.6473 19.5442 26.7191 19.3583C26.7261 19.3403 26.7331 19.3249 26.7404 19.3124C26.7426 19.3095 26.7444 19.3069 26.7459 19.3036C26.7499 19.2985 26.7543 19.2937 26.7587 19.2893C26.7635 19.2846 26.7686 19.2809 26.7745 19.2783C26.7774 19.2769 26.7807 19.2758 26.784 19.2747C26.7932 19.2717 26.8038 19.2706 26.8156 19.2721C26.8225 19.2728 26.8299 19.2743 26.8379 19.2761C26.8387 19.2761 26.8394 19.2761 26.8401 19.2765C26.8438 19.2772 26.8471 19.2783 26.8508 19.2794C26.8563 19.2813 26.8625 19.2831 26.8691 19.2856C26.9927 19.3311 27.1162 19.3762 27.2394 19.4221C27.3172 19.451 27.3945 19.4796 27.4719 19.5097C27.4767 19.5119 27.4811 19.5137 27.4855 19.5148C27.5379 19.535 27.59 19.5559 27.6417 19.5768C27.6486 19.5794 27.6552 19.5819 27.6618 19.5845C27.7176 19.6072 27.7733 19.6303 27.8283 19.6538C27.876 19.6743 27.9229 19.6949 27.9702 19.7161C28.0098 19.7341 28.0498 19.7524 28.089 19.7711C28.1341 19.7924 28.1785 19.8144 28.2225 19.8371C28.2496 19.8507 28.2768 19.8646 28.3039 19.8789C28.3589 19.9083 28.4139 19.9383 28.4682 19.9702C28.4902 19.9823 28.5114 19.9952 28.5327 20.0084C28.6145 20.0571 28.6948 20.1092 28.7732 20.1642C28.8216 20.1983 28.8693 20.2335 28.9155 20.2709C28.9338 20.2856 28.9518 20.3002 28.9698 20.3153C28.9881 20.3307 29.0064 20.3464 29.024 20.3626C29.0325 20.3699 29.0402 20.3769 29.0482 20.3849C29.0596 20.3948 29.071 20.4058 29.082 20.4168L29.0845 20.4194C29.1043 20.4385 29.1234 20.4583 29.1421 20.4784C29.1483 20.4847 29.1538 20.4913 29.1597 20.4971C29.1751 20.5136 29.1898 20.5305 29.2037 20.5474C29.222 20.5686 29.2396 20.5903 29.2561 20.6123C29.2767 20.6394 29.2957 20.6669 29.3133 20.6944C29.3313 20.7223 29.3474 20.7501 29.3628 20.7787C29.3782 20.807 29.3918 20.8356 29.4039 20.8642C29.4105 20.8785 29.416 20.8931 29.4219 20.9074C29.4259 20.9184 29.4303 20.9294 29.4336 20.9401C29.4376 20.9511 29.4409 20.9621 29.4446 20.9727C29.4483 20.9826 29.4512 20.9925 29.4538 21.0024C29.4574 21.0141 29.4604 21.0266 29.4633 21.0383C29.4673 21.0526 29.4703 21.0677 29.4732 21.0823C29.482 21.1227 29.4875 21.1626 29.4912 21.203C29.4919 21.2096 29.4926 21.2162 29.493 21.2228C29.4959 21.262 29.497 21.3009 29.4952 21.3398L29.4945 21.3405ZM30.3173 17.7368L30.3158 17.7475C30.3092 17.7999 30.2982 17.8527 30.2832 17.9059C30.2795 17.9198 30.2755 17.9334 30.2711 17.9473C30.2619 17.9766 30.252 18.0049 30.2407 18.032C30.2297 18.0599 30.2179 18.0866 30.2047 18.1119C30.1871 18.1471 30.1681 18.1809 30.1475 18.2131C30.1428 18.2201 30.138 18.2274 30.1332 18.2344C30.1332 18.2351 30.1329 18.2359 30.1325 18.2362C30.1281 18.2436 30.1233 18.2502 30.1182 18.2568C30.1105 18.2681 30.102 18.2795 30.0936 18.2905C30.0771 18.3118 30.0591 18.3323 30.0404 18.3521C30.0221 18.3723 30.003 18.391 29.9829 18.4093C29.9627 18.4276 29.9422 18.4445 29.9205 18.461C29.9037 18.4742 29.8857 18.4863 29.8674 18.498C29.8516 18.5087 29.8355 18.5186 29.819 18.5281C29.819 18.5281 29.8186 18.5281 29.8182 18.5285C29.8014 18.538 29.7838 18.5472 29.7662 18.556C29.7574 18.5604 29.7486 18.5644 29.7394 18.5688C29.7126 18.5809 29.6848 18.5923 29.6565 18.6025C29.647 18.6062 29.6375 18.6091 29.6276 18.6124C29.6089 18.6187 29.5902 18.6242 29.5707 18.6289C29.5476 18.6352 29.5245 18.6407 29.5003 18.6454C29.471 18.6517 29.4409 18.6564 29.4109 18.6601C29.3394 18.6696 29.2642 18.6737 29.1861 18.6718C29.1747 18.6718 29.163 18.6715 29.1513 18.6711C29.1128 18.6693 29.075 18.6656 29.0365 18.6601C28.9855 18.6535 28.9338 18.6454 28.8829 18.6377C28.87 18.6355 28.8572 18.6337 28.8444 18.6322C28.8356 18.6315 28.8275 18.63 28.8191 18.6293C28.8026 18.6275 28.7864 18.6253 28.7703 18.6227C28.749 18.6198 28.7278 18.6161 28.7069 18.6128C28.6838 18.6091 28.661 18.6055 28.6383 18.6011C28.6156 18.597 28.5928 18.5926 28.5705 18.5879C28.5551 18.5849 28.54 18.5816 28.5243 18.5783C28.5059 18.5743 28.488 18.5706 28.4696 18.5655C28.4359 18.5578 28.4029 18.5494 28.3692 18.5406C28.345 18.5343 28.3208 18.5277 28.2966 18.5208C28.2764 18.5153 28.2559 18.5094 28.2357 18.5039C28.1132 18.468 27.9926 18.4276 27.8723 18.3836C27.8279 18.3675 27.7836 18.351 27.7396 18.3341C27.5958 18.2795 27.4532 18.2219 27.3102 18.1647C27.3062 18.1629 27.3029 18.1618 27.2992 18.16C27.2882 18.1552 27.279 18.1504 27.2713 18.1457C27.2658 18.142 27.2607 18.1391 27.257 18.1358C27.2526 18.1328 27.2486 18.1288 27.2457 18.1251C27.2438 18.1229 27.242 18.1211 27.2409 18.1196C27.238 18.1156 27.2354 18.1112 27.2336 18.1068C27.2317 18.1031 27.2306 18.0995 27.2295 18.0958C27.2288 18.0929 27.2281 18.0903 27.2277 18.087C27.2273 18.083 27.227 18.0793 27.227 18.0756C27.227 18.0701 27.2273 18.0639 27.2288 18.0577C27.2295 18.0514 27.231 18.0448 27.2332 18.0379C27.2347 18.0309 27.2372 18.0236 27.2398 18.0159C27.2424 18.0082 27.2453 18.0008 27.2486 17.9928C27.5064 17.3408 27.7608 16.687 28.0142 16.0325C28.0234 16.0091 28.0311 15.9852 28.0417 15.9658C28.0454 15.9592 28.0491 15.953 28.0531 15.9475C28.0557 15.9431 28.0586 15.939 28.0623 15.9357C28.0711 15.9266 28.081 15.92 28.0938 15.9167C28.1 15.9148 28.1066 15.9141 28.114 15.9141H28.1158C28.1228 15.9141 28.1305 15.9148 28.1393 15.9167C28.1437 15.9174 28.1484 15.9189 28.1532 15.9203C28.158 15.9211 28.1631 15.9229 28.169 15.9251C28.386 16.0065 28.6049 16.0846 28.8194 16.1719C28.8909 16.2008 28.9621 16.2305 29.0325 16.2624C29.0501 16.2701 29.0677 16.2782 29.0853 16.2859C29.1029 16.2936 29.1201 16.3017 29.1377 16.3105C29.2422 16.36 29.3449 16.4128 29.4453 16.4703C29.4662 16.4824 29.4868 16.4949 29.5073 16.5074C29.5286 16.5206 29.5506 16.5341 29.5718 16.5477C29.5909 16.5598 29.6107 16.5726 29.6298 16.5858C29.6499 16.5994 29.6701 16.613 29.6899 16.6269C29.7057 16.6383 29.7214 16.6496 29.7372 16.6614C29.7533 16.6724 29.7691 16.6845 29.7845 16.6966C29.8003 16.7083 29.816 16.7208 29.8311 16.7329C29.8516 16.7494 29.8714 16.7662 29.8905 16.7831C29.9 16.7919 29.9095 16.8007 29.9194 16.8084C29.9381 16.8249 29.9561 16.8425 29.9733 16.8601C29.9825 16.8685 29.9913 16.877 29.999 16.8858C30.0111 16.899 30.0236 16.9118 30.0353 16.925C30.0471 16.9382 30.0584 16.9518 30.0698 16.9646C30.0775 16.9734 30.0844 16.9826 30.0918 16.9914C30.1024 17.0046 30.1127 17.0181 30.1222 17.0317C30.1321 17.0453 30.1413 17.0588 30.1512 17.0724C30.1604 17.0863 30.1692 17.0999 30.1772 17.1138C30.186 17.1278 30.1937 17.1413 30.2018 17.1553C30.2223 17.1923 30.2403 17.2305 30.2561 17.2682C30.259 17.2752 30.2616 17.2822 30.2645 17.2895C30.2674 17.2965 30.27 17.3034 30.2722 17.3108C30.2773 17.3251 30.2821 17.3397 30.2865 17.354C30.2909 17.3691 30.2949 17.3834 30.2982 17.3977C30.3052 17.427 30.3114 17.4567 30.3158 17.4864C30.3202 17.5161 30.3228 17.5458 30.3246 17.5759C30.3265 17.6166 30.3261 17.6576 30.3224 17.6987C30.3217 17.7115 30.3202 17.7236 30.3188 17.7361L30.3173 17.7368Z" fill="white"/>
<path d="M29.2551 20.6154C29.7721 21.2967 29.4131 22.2148 28.5723 22.3589C28.3325 22.4 28.092 22.3945 27.938 22.3659C27.1771 22.2632 26.5538 22.0021 25.9257 21.7583C25.8403 21.7249 25.812 21.6868 25.8502 21.5904C26.1435 20.8486 26.4321 20.105 26.7184 19.3606C26.75 19.2781 26.7815 19.2561 26.8688 19.2884C27.5273 19.5311 28.1914 19.7603 28.7729 20.1677C28.954 20.2949 29.1205 20.4383 29.2554 20.6154H29.2551Z" fill="#F7931A"/>
<path d="M30.2716 17.9479C30.1154 18.4345 29.7131 18.6963 29.1514 18.6717C29.0487 18.6669 28.9464 18.6468 28.8437 18.6339C28.3047 18.5694 27.8082 18.3663 27.3099 18.1664C27.2095 18.1264 27.215 18.0784 27.248 17.9944C27.5054 17.3425 27.7602 16.6887 28.0132 16.0346C28.0422 15.9598 28.0605 15.8868 28.1676 15.9271C28.7473 16.1442 29.3376 16.3386 29.8301 16.7346C30.2668 17.0855 30.4153 17.4998 30.2716 17.9482V17.9479Z" fill="#F7931A"/>
<path d="M32.0838 32.1492C31.8605 32.0649 31.6401 31.9717 31.4161 31.89C31.3475 31.865 31.3457 31.8379 31.3702 31.7785C31.4414 31.6062 31.503 31.4302 31.5759 31.2578C31.6027 31.1959 31.5847 31.1764 31.5286 31.1581C31.4439 31.1302 31.3581 31.1005 31.2782 31.0606C31.2093 31.0257 31.1873 31.0488 31.1642 31.1134C31.1249 31.223 31.082 31.3312 31.0402 31.4397C31.0146 31.5053 30.9893 31.5702 30.9643 31.6362C30.9482 31.6795 30.9317 31.6956 30.8837 31.6729C30.8166 31.6406 30.7462 31.615 30.6758 31.5904C30.6299 31.5739 30.6219 31.5537 30.6409 31.5075C30.7146 31.3253 30.7832 31.1412 30.8562 30.9586C30.8727 30.9172 30.869 30.8996 30.8228 30.8849C30.7245 30.8512 30.6266 30.8127 30.5309 30.7709C30.4851 30.7507 30.4675 30.7577 30.4495 30.805C30.4286 30.8615 30.407 30.9172 30.385 30.9737C30.3348 31.1031 30.283 31.2318 30.2343 31.362C30.2174 31.4085 30.1991 31.4159 30.1529 31.4012C29.9362 31.333 29.7165 31.2784 29.4863 31.2769C29.212 31.2751 28.9788 31.3642 28.8032 31.5831C28.7122 31.6967 28.6459 31.8247 28.5997 31.9626C28.4871 32.2999 28.5645 32.5632 28.8387 32.7898C28.8607 32.8081 28.8904 32.8191 28.9047 32.8521C28.8358 32.869 28.7676 32.8811 28.7042 32.9086C28.6374 32.9383 28.5766 32.9764 28.5238 33.027C28.2352 33.3031 28.2088 33.7442 28.4512 34.0489C28.4673 34.0687 28.4838 34.0878 28.5021 34.1065C28.6327 34.2396 28.7863 34.3412 28.9524 34.4219C29.0173 34.4538 29.0239 34.4831 28.9975 34.5462C28.926 34.7156 28.8633 34.8894 28.7944 35.0602C28.7757 35.1079 28.7735 35.1332 28.8325 35.1515C28.8824 35.1669 28.9315 35.1849 28.9806 35.2043C29.0268 35.2219 29.0727 35.241 29.1174 35.2619C29.1662 35.2839 29.1808 35.2696 29.1973 35.2256C29.2113 35.1886 29.2252 35.1515 29.2399 35.1141C29.2927 34.977 29.3477 34.8413 29.3979 34.7027C29.4184 34.647 29.4437 34.6389 29.4947 34.6617C29.5512 34.6873 29.6098 34.7101 29.67 34.7262C29.7345 34.7442 29.7484 34.7702 29.7206 34.8358C29.7022 34.8795 29.6843 34.9231 29.6674 34.9664C29.6168 35.094 29.5691 35.2227 29.5174 35.3495C29.4991 35.3961 29.5086 35.4155 29.5534 35.432C29.6494 35.4669 29.7444 35.5035 29.8386 35.5424C29.8845 35.5615 29.9072 35.5534 29.9252 35.5043C29.9919 35.3246 30.0652 35.1479 30.1309 34.9675C30.1518 34.9103 30.1734 34.9051 30.2273 34.9268C30.4532 35.0184 30.6816 35.1035 30.9082 35.1937C30.9544 35.2117 30.979 35.2091 30.997 35.1574C31.0351 35.0496 31.0754 34.9425 31.1202 34.8373C31.1403 34.7911 31.1271 34.7786 31.085 34.7643C30.9933 34.7328 30.9024 34.6976 30.8147 34.6562C30.6945 34.6004 30.6497 34.4912 30.6963 34.3709C30.6981 34.3661 30.7003 34.3603 30.7025 34.3551C30.8305 34.0255 30.9585 33.6951 31.0872 33.3655C31.184 33.1165 31.2815 32.8672 31.379 32.6182C31.4216 32.5093 31.4938 32.477 31.6056 32.5163C31.683 32.5438 31.7604 32.5727 31.8341 32.6068C31.8766 32.6259 31.8949 32.6164 31.9162 32.579C31.9811 32.4646 32.0467 32.3498 32.1182 32.2391C32.1549 32.1833 32.1373 32.169 32.0838 32.1485V32.1492ZM29.7415 31.9435C29.8284 31.9292 29.9149 31.9307 29.9714 31.9409C30.246 31.978 30.4715 32.0726 30.6985 32.1606C30.7297 32.1723 30.7396 32.1863 30.7256 32.2215C30.62 32.4895 30.5155 32.7583 30.4121 33.0274C30.4008 33.0571 30.389 33.0655 30.3575 33.0534C30.1195 32.9658 29.8797 32.8826 29.6696 32.7359C29.604 32.6897 29.5435 32.638 29.4951 32.5738C29.3084 32.3274 29.4379 31.9956 29.7418 31.9435H29.7415ZM30.2207 33.5202C30.1276 33.7556 30.0359 33.9925 29.9439 34.229C29.9332 34.2558 29.927 34.2818 29.8885 34.2679C29.6788 34.1887 29.4657 34.119 29.2875 33.976C29.2329 33.932 29.1911 33.8854 29.1614 33.8363C29.1057 33.7435 29.0943 33.6427 29.128 33.5367C29.1845 33.3611 29.3297 33.2668 29.5328 33.2756C29.5699 33.2771 29.6069 33.2844 29.6439 33.2892C29.839 33.3127 30.0187 33.386 30.1987 33.4582C30.2196 33.4667 30.228 33.4758 30.2288 33.4883C30.2291 33.4971 30.2258 33.5074 30.2211 33.5202H30.2207Z" fill="white"/>
<g opacity="0.36">
<path d="M14.0852 22.7916L13.7559 23.6632C13.4376 23.4113 13.1197 23.1586 12.8022 22.906C12.6518 22.7865 12.4384 22.7304 12.3721 22.5166C12.8077 22.5166 13.226 22.6317 13.6488 22.7102C13.7944 22.7373 13.94 22.7645 14.0855 22.792L14.0852 22.7916Z" fill="#424242"/>
<path d="M31.0639 31.5237L31.0382 31.4372L28.8639 24.1731L28.3263 22.3767L27.4665 19.5038L25.665 13.4846L23.4708 6.15294L23.1214 4.98582L22.4647 2.79165C22.3683 2.46971 22.1835 2.19874 21.9444 1.99707L21.1109 4.20077L21.0017 4.49044L16.8256 15.5401C17.1608 15.803 17.4952 16.0652 17.8296 16.3277C18.5197 16.8693 19.2028 17.4197 19.9031 17.9473C20.0788 18.0797 20.0579 18.1494 19.9259 18.2825C19.1602 19.0528 18.399 19.8273 17.6375 20.602C17.3514 20.8928 17.0691 21.1887 16.7842 21.4806C16.7365 21.529 16.6812 21.5704 16.6284 21.6162C16.5693 21.6067 16.5187 21.5994 16.4685 21.5902C15.8672 21.4791 15.2662 21.3684 14.6648 21.2573L14.0866 22.7878C15.0583 22.9693 16.0292 23.1588 16.9991 23.3491C17.1468 23.3785 17.2458 23.3301 17.3437 23.2278C18.3697 22.156 19.4352 21.1227 20.4407 20.0311C20.4803 19.9875 20.536 19.9589 20.5844 19.9233C20.6959 20.0121 20.6262 20.1162 20.5991 20.2075C20.1998 21.5488 19.7902 22.8868 19.3832 24.2255C19.1104 25.1235 18.8431 26.0237 18.5618 26.9187C18.4493 27.2784 18.3862 27.2997 18.0874 27.065C16.6423 25.9316 15.1965 24.7997 13.757 23.6593L11.69 29.1283C11.3648 29.9896 11.7989 30.9514 12.6599 31.2766L23.7279 35.4592L28.4499 34.0461L29.159 33.8338L29.9452 33.5984C30.0438 33.569 30.1377 33.5313 30.2264 33.4858C30.9301 33.1276 31.2982 32.3073 31.0643 31.5241L31.0639 31.5237ZM25.702 29.8994C25.665 29.8697 25.6881 29.8348 25.6973 29.804C25.8308 29.3541 25.9686 28.9053 26.1047 28.4562C26.1963 28.1551 26.2858 27.8533 26.3804 27.553C26.4185 27.4324 26.4394 27.4254 26.5399 27.5043C27.1313 27.9685 27.7235 28.432 28.3117 28.9002C28.3623 28.9405 28.4334 28.9592 28.4558 29.0311C28.3098 29.0311 28.1698 28.9922 28.0279 28.9662C27.6531 28.8969 27.2787 28.8239 26.9047 28.7506C26.8552 28.7411 26.8222 28.7572 26.7896 28.7913C26.4453 29.1506 26.0882 29.4975 25.7512 29.8634C25.7376 29.8781 25.7189 29.888 25.7028 29.8997L25.702 29.8994ZM27.9274 32.0301C27.9069 32.1053 27.8834 32.0921 27.8354 32.0543C27.4331 31.7368 27.029 31.4214 26.6261 31.1054C26.3947 30.9235 26.1659 30.7391 25.9309 30.562C25.8718 30.518 25.8788 30.4941 25.9235 30.4498C26.1802 30.1913 26.4354 29.9316 26.691 29.672C26.787 29.5741 26.8813 29.4751 26.977 29.3772C26.9931 29.3611 27.0114 29.3472 27.0294 29.3318C27.0492 29.3347 27.0661 29.3373 27.0833 29.3406C27.5647 29.4293 28.0458 29.518 28.5276 29.6071C28.5445 29.6101 28.5617 29.6159 28.5786 29.6178C28.6457 29.6247 28.6512 29.6515 28.631 29.716C28.4407 30.3335 28.2548 30.9528 28.0675 31.5718C28.0213 31.725 27.9696 31.8765 27.9278 32.0308L27.9274 32.0301Z" fill="#424242"/>
<path d="M14.09 22.7842L13.7608 23.6557C13.4425 23.4038 13.1246 23.1512 12.8071 22.8986C12.6567 22.779 12.4433 22.7229 12.377 22.5092C12.8126 22.5092 13.2309 22.6243 13.6537 22.7028C13.7993 22.7299 13.9448 22.757 14.0904 22.7845L14.09 22.7842Z" fill="#424242"/>
</g>
<path d="M29.7625 31.5258C30.0265 32.4076 29.5256 33.3368 28.6437 33.6L10.745 38.9578C9.86315 39.2219 8.93437 38.721 8.67036 37.8391L0.0704268 9.1074C-0.193577 8.22555 0.307664 7.29677 1.18914 7.03313L19.0883 1.67531C19.9697 1.41131 20.8989 1.91219 21.1625 2.79403L29.7625 31.5258Z" fill="#627EEA"/>
<path d="M3.99123 11.2262C3.97143 11.2229 3.95457 11.2207 3.9377 11.2174C3.45626 11.1287 2.97482 11.04 2.49338 10.9509C2.47614 10.9476 2.45927 10.9421 2.44204 10.9402C2.37457 10.9333 2.36981 10.9069 2.38961 10.842C2.58028 10.2241 2.76581 9.60517 2.95318 8.98622C2.99975 8.83295 3.05108 8.68115 3.09325 8.52678C3.11379 8.45198 3.13725 8.46481 3.18529 8.50295C3.58753 8.82049 3.99123 9.13619 4.39421 9.45226C4.62558 9.63377 4.85475 9.8182 5.08942 9.9953C5.14845 10.0397 5.14148 10.0631 5.09712 10.1079C4.84045 10.366 4.58488 10.626 4.32967 10.8856C4.2336 10.9831 4.139 11.0821 4.0433 11.1804C4.02717 11.1969 4.00883 11.2108 3.99087 11.2262H3.99123Z" fill="white"/>
<path d="M2.56348 11.526C2.70941 11.526 2.84985 11.5649 2.99175 11.5909C3.36649 11.6602 3.74086 11.7332 4.11487 11.8065C4.16437 11.8164 4.19774 11.7999 4.23037 11.7658C4.57431 11.4065 4.93181 11.06 5.26879 10.6936C5.28199 10.679 5.30069 10.6694 5.31719 10.6577C5.35459 10.6874 5.33112 10.7226 5.32232 10.753C5.18849 11.203 5.05098 11.6514 4.91458 12.1006C4.82291 12.4016 4.73344 12.7034 4.63921 13.0037C4.60144 13.1243 4.58018 13.1313 4.48007 13.0528C3.88826 12.5886 3.29609 12.1251 2.70795 11.6569C2.65771 11.6169 2.58584 11.5979 2.56384 11.5264L2.56348 11.526Z" fill="white"/>
<path d="M15.3271 21.6167C15.2685 21.6072 15.2179 21.5999 15.1673 21.5907C13.7317 21.326 12.2962 21.0612 10.8607 20.7961C10.8094 20.7866 10.7591 20.7697 10.7078 20.7646C10.5069 20.744 10.4922 20.6652 10.5516 20.472C11.1203 18.6302 11.6729 16.7836 12.2317 14.9389C12.3699 14.482 12.5232 14.0292 12.649 13.569C12.7102 13.3457 12.7806 13.3846 12.924 13.4975C14.123 14.4442 15.3271 15.3851 16.5291 16.3282C17.2192 16.8694 17.9023 17.4198 18.6023 17.9474C18.7783 18.0802 18.7574 18.1502 18.6254 18.2826C17.8597 19.053 17.0982 19.8274 16.3366 20.6018C16.0502 20.8929 15.7682 21.1885 15.483 21.4803C15.4353 21.5291 15.3799 21.5705 15.3271 21.6164V21.6167Z" fill="white"/>
<path d="M11.0721 22.5139C11.5074 22.5139 11.9258 22.6294 12.3489 22.7075C13.4669 22.9139 14.5823 23.1317 15.6981 23.3506C15.8459 23.3796 15.9452 23.3312 16.0428 23.2293C17.0687 22.1575 18.1343 21.1242 19.1393 20.0322C19.1793 19.989 19.2346 19.9604 19.283 19.9248C19.3945 20.0135 19.3248 20.118 19.2977 20.209C18.8988 21.5503 18.4892 22.8883 18.0818 24.227C17.8087 25.125 17.5417 26.0248 17.2605 26.9202C17.1475 27.2803 17.0848 27.3008 16.786 27.0661C15.0216 25.6823 13.2557 24.3003 11.5019 22.9033C11.3515 22.7837 11.1381 22.7276 11.0718 22.5139H11.0721Z" fill="white"/>
<path d="M25.7267 29.3365C25.7465 29.3398 25.7634 29.342 25.7803 29.3453C26.2617 29.4341 26.7432 29.5228 27.2246 29.6119C27.2418 29.6152 27.2587 29.6207 27.2759 29.6226C27.3434 29.6295 27.3482 29.6559 27.3284 29.7208C27.1377 30.3387 26.9522 30.9576 26.7648 31.5766C26.7182 31.7298 26.6669 31.8816 26.6247 32.036C26.6042 32.1108 26.5807 32.098 26.5327 32.0598C26.1305 31.7423 25.7267 31.4266 25.3238 31.1105C25.0924 30.929 24.8632 30.7446 24.6286 30.5675C24.5695 30.5231 24.5765 30.4996 24.6209 30.4549C24.8775 30.1968 25.1331 29.9368 25.3883 29.6772C25.4844 29.5797 25.579 29.4807 25.6747 29.3824C25.6908 29.3659 25.7091 29.3519 25.7271 29.3365H25.7267Z" fill="white"/>
<path d="M27.1526 29.0346C27.0067 29.0346 26.8663 28.9957 26.7244 28.9697C26.3496 28.9004 25.9753 28.8274 25.6013 28.7541C25.5517 28.7442 25.5184 28.7607 25.4857 28.7948C25.1418 29.1541 24.7843 29.5006 24.4473 29.8669C24.4341 29.8816 24.4154 29.8911 24.3989 29.9029C24.3615 29.8732 24.385 29.838 24.3938 29.8075C24.5276 29.3576 24.6651 28.9092 24.8015 28.46C24.8932 28.159 24.9827 27.8572 25.0769 27.5569C25.1147 27.4363 25.1359 27.4293 25.236 27.5078C25.8279 27.972 26.42 28.4354 27.0082 28.9037C27.0584 28.9437 27.1303 28.9627 27.1523 29.0342L27.1526 29.0346Z" fill="white"/>
<path d="M63.4299 25.6025H62.1081V28.6602H68.5645V25.6025H66.9885L62.0827 10.3659H54.9145V13.4237H55.6517C55.9313 13.4237 56.2363 13.4237 56.4651 13.4237L56.5159 13.4759C56.4142 13.7111 56.1601 14.652 55.9313 15.3838L52.6014 25.6025H51V28.6602H57.1768V25.6025H55.8296L56.643 22.9629H62.6165L63.4299 25.6025ZM61.7268 20.1142H57.5327L58.0665 18.3893C59.0324 15.227 59.5408 13.11 59.5662 13.0316H59.6679C59.6933 13.11 60.1762 15.227 61.1676 18.337L61.7268 20.1142Z" fill="black"/>
<path d="M63.4299 25.6025H62.1081V28.6602H68.5645V25.6025H66.9885L62.0827 10.3659H54.9145V13.4237H55.6517C55.9313 13.4237 56.2363 13.4237 56.4651 13.4237L56.5159 13.4759C56.4142 13.7111 56.1601 14.652 55.9313 15.3838L52.6014 25.6025H51V28.6602H57.1768V25.6025H55.8296L56.643 22.9629H62.6165L63.4299 25.6025ZM61.7268 20.1142H57.5327L58.0665 18.3893C59.0324 15.227 59.5408 13.11 59.5662 13.0316H59.6679C59.6933 13.11 60.1762 15.227 61.1676 18.337L61.7268 20.1142Z" fill="url(#paint0_linear_0_1)"/>
<path d="M80.9616 22.8061C80.199 24.6094 78.8773 25.707 76.7675 25.707C73.946 25.707 72.0396 23.564 72.0396 19.4085C72.0396 15.5406 73.8189 13.293 76.8183 13.293C79.5382 13.293 81.0125 15.3576 81.0125 16.795V17.3961H84.0373V10.3659H81.2412L81.165 11.934H81.0887C80.1482 10.7579 78.5977 10 76.4879 10C71.9887 10 68.608 13.293 68.608 19.4608C68.608 25.6547 72.065 29 76.7675 29C80.5803 29 83.0206 26.8308 84.2152 23.7208L80.9616 22.8061Z" fill="black"/>
<path d="M80.9616 22.8061C80.199 24.6094 78.8773 25.707 76.7675 25.707C73.946 25.707 72.0396 23.564 72.0396 19.4085C72.0396 15.5406 73.8189 13.293 76.8183 13.293C79.5382 13.293 81.0125 15.3576 81.0125 16.795V17.3961H84.0373V10.3659H81.2412L81.165 11.934H81.0887C80.1482 10.7579 78.5977 10 76.4879 10C71.9887 10 68.608 13.293 68.608 19.4608C68.608 25.6547 72.065 29 76.7675 29C80.5803 29 83.0206 26.8308 84.2152 23.7208L80.9616 22.8061Z" fill="url(#paint1_linear_0_1)"/>
<path d="M99.36 28.6602V22.8845H96.1826V25.6025H91.0988V20.7675H95.7505V17.7359H91.0988V13.4237H96.0301V15.9065H99.2075V10.3659H86.1167V13.4237H87.7181V25.6025H86.1167V28.6602H99.36Z" fill="black"/>
<path d="M99.36 28.6602V22.8845H96.1826V25.6025H91.0988V20.7675H95.7505V17.7359H91.0988V13.4237H96.0301V15.9065H99.2075V10.3659H86.1167V13.4237H87.7181V25.6025H86.1167V28.6602H99.36Z" fill="url(#paint2_linear_0_1)"/>
<path d="M110.942 25.6025V28.6602H117.5L117.474 25.6025H115.949L111.298 17.8143L115.568 13.4237H117.093V10.3659H110.154V13.4237H111.526L108.501 16.6382L106.443 18.8858H106.366V13.4237H108.019V10.3659H101.333V13.4237H103.011V25.6025H101.333V28.6602H107.993V25.6025H106.366V22.8845L108.959 20.2187L112.187 25.6025H110.942Z" fill="black"/>
<path d="M110.942 25.6025V28.6602H117.5L117.474 25.6025H115.949L111.298 17.8143L115.568 13.4237H117.093V10.3659H110.154V13.4237H111.526L108.501 16.6382L106.443 18.8858H106.366V13.4237H108.019V10.3659H101.333V13.4237H103.011V25.6025H101.333V28.6602H107.993V25.6025H106.366V22.8845L108.959 20.2187L112.187 25.6025H110.942Z" fill="url(#paint3_linear_0_1)"/>
<path d="M123.865 25.6025V13.4237H125.467V10.3659H118.883V13.4237H120.485V25.6025H118.883V28.6602H125.467V25.6025H123.865Z" fill="black"/>
<path d="M123.865 25.6025V13.4237H125.467V10.3659H118.883V13.4237H120.485V25.6025H118.883V28.6602H125.467V25.6025H123.865Z" fill="url(#paint4_linear_0_1)"/>
<path d="M142.601 13.4237H144.202V10.3659H138.178V13.4237H139.677V18.1018C139.677 20.271 139.728 22.6492 139.728 22.6754H139.652L132.052 10.3659H127.298V13.4237H128.9V25.6025H127.298V28.6602H133.348V25.6025H131.823V20.9766C131.823 18.5461 131.772 16.2724 131.772 16.2462H131.848L139.525 28.6602H142.601V13.4237Z" fill="black"/>
<path d="M142.601 13.4237H144.202V10.3659H138.178V13.4237H139.677V18.1018C139.677 20.271 139.728 22.6492 139.728 22.6754H139.652L132.052 10.3659H127.298V13.4237H128.9V25.6025H127.298V28.6602H133.348V25.6025H131.823V20.9766C131.823 18.5461 131.772 16.2724 131.772 16.2462H131.848L139.525 28.6602H142.601V13.4237Z" fill="url(#paint5_linear_0_1)"/>
<path d="M161 18.6245H153.73V21.5254H157.823V23.4072C157.34 24.3741 155.865 25.707 153.476 25.707C150.477 25.707 148.545 23.5117 148.545 19.4347C148.545 15.5144 150.349 13.293 153.374 13.293C156.196 13.293 157.568 15.4099 157.568 16.3769V16.9257H160.67V10.3659H157.797L157.721 11.934H157.645C156.755 10.8102 155.103 10 153.044 10C148.468 10 145.113 13.293 145.113 19.5392C145.113 25.6809 148.672 28.9739 153.12 28.9739C155.332 28.9739 157.035 27.9285 157.899 27.0399H157.95C157.95 27.1183 157.924 27.3274 157.924 28.6602H161V18.6245Z" fill="black"/>
<path d="M161 18.6245H153.73V21.5254H157.823V23.4072C157.34 24.3741 155.865 25.707 153.476 25.707C150.477 25.707 148.545 23.5117 148.545 19.4347C148.545 15.5144 150.349 13.293 153.374 13.293C156.196 13.293 157.568 15.4099 157.568 16.3769V16.9257H160.67V10.3659H157.797L157.721 11.934H157.645C156.755 10.8102 155.103 10 153.044 10C148.468 10 145.113 13.293 145.113 19.5392C145.113 25.6809 148.672 28.9739 153.12 28.9739C155.332 28.9739 157.035 27.9285 157.899 27.0399H157.95C157.95 27.1183 157.924 27.3274 157.924 28.6602H161V18.6245Z" fill="url(#paint6_linear_0_1)"/>
<defs>
<linearGradient id="paint0_linear_0_1" x1="109" y1="55.5" x2="107.5" y2="15.5" gradientUnits="userSpaceOnUse">
<stop stop-color="#D0CDCD"/>
<stop offset="1" stop-color="#F5F5F5"/>
</linearGradient>
<linearGradient id="paint1_linear_0_1" x1="109" y1="55.5" x2="107.5" y2="15.5" gradientUnits="userSpaceOnUse">
<stop stop-color="#D0CDCD"/>
<stop offset="1" stop-color="#F5F5F5"/>
</linearGradient>
<linearGradient id="paint2_linear_0_1" x1="109" y1="55.5" x2="107.5" y2="15.5" gradientUnits="userSpaceOnUse">
<stop stop-color="#D0CDCD"/>
<stop offset="1" stop-color="#F5F5F5"/>
</linearGradient>
<linearGradient id="paint3_linear_0_1" x1="109" y1="55.5" x2="107.5" y2="15.5" gradientUnits="userSpaceOnUse">
<stop stop-color="#D0CDCD"/>
<stop offset="1" stop-color="#F5F5F5"/>
</linearGradient>
<linearGradient id="paint4_linear_0_1" x1="109" y1="55.5" x2="107.5" y2="15.5" gradientUnits="userSpaceOnUse">
<stop stop-color="#D0CDCD"/>
<stop offset="1" stop-color="#F5F5F5"/>
</linearGradient>
<linearGradient id="paint5_linear_0_1" x1="109" y1="55.5" x2="107.5" y2="15.5" gradientUnits="userSpaceOnUse">
<stop stop-color="#D0CDCD"/>
<stop offset="1" stop-color="#F5F5F5"/>
</linearGradient>
<linearGradient id="paint6_linear_0_1" x1="109" y1="55.5" x2="107.5" y2="15.5" gradientUnits="userSpaceOnUse">
<stop stop-color="#D0CDCD"/>
<stop offset="1" stop-color="#F5F5F5"/>
</linearGradient>
</defs>
</svg>
