<svg width="19" height="15" viewBox="0 0 19 15" fill="none" xmlns="http://www.w3.org/2000/svg">
<path d="M17.9225 2.94922V11.2826C17.9225 11.8351 17.703 12.365 17.3123 12.7557C16.9216 13.1464 16.3917 13.3659 15.8392 13.3659H3.33919C2.78666 13.3659 2.25675 13.1464 1.86605 12.7557C1.47535 12.365 1.25586 11.8351 1.25586 11.2826V2.94922" stroke="white" stroke-width="1.4" stroke-linecap="round" stroke-linejoin="round"/>
<path d="M17.9225 2.95052C17.9225 2.39799 17.703 1.86808 17.3123 1.47738C16.9216 1.08668 16.3917 0.867188 15.8392 0.867188H3.33919C2.78666 0.867188 2.25675 1.08668 1.86605 1.47738C1.47535 1.86808 1.25586 2.39799 1.25586 2.95052L8.48503 7.46441C8.81613 7.67135 9.19873 7.78108 9.58919 7.78108C9.97965 7.78108 10.3623 7.67135 10.6934 7.46441L17.9225 2.95052Z" stroke="white" stroke-width="1.4" stroke-linecap="round" stroke-linejoin="round"/>
</svg>
