<svg width="13" height="12" viewBox="0 0 13 12" fill="none" xmlns="http://www.w3.org/2000/svg">
<path fill-rule="evenodd" clip-rule="evenodd" d="M10.6167 12C10.6167 11.215 10.6167 10.2897 9.75 10.2897C9.75 8.74766 9.85832 8.17465 10.8333 6.95327L11.44 5.69725C11.5981 5.91514 11.8498 6.05608 12.1333 6.05608C12.612 6.05608 13 5.65439 13 5.15888C13 4.66337 12.612 4.26168 12.1333 4.26168C11.6547 4.26168 11.2667 4.66337 11.2667 5.15888C11.2667 5.3198 11.3076 5.47082 11.3792 5.6014C10.2183 5.54064 9.54198 5.7455 8.36536 6.28037C7.63043 4.95778 7.26655 3.91544 6.75921 2.46214C6.6848 2.249 6.60731 2.02702 6.52511 1.79402C6.99214 1.78027 7.36667 1.38401 7.36667 0.897196C7.36667 0.401688 6.97865 0 6.5 0C6.02135 0 5.63333 0.401688 5.63333 0.897196C5.63333 1.34864 5.95541 1.72221 6.37467 1.78508C6.32353 1.94007 6.27442 2.08981 6.22678 2.2351C5.72524 3.7646 5.38541 4.80093 4.5263 6.28037C3.3831 5.78276 2.70972 5.61119 1.61796 5.60645C1.69135 5.47472 1.73333 5.32187 1.73333 5.15888C1.73333 4.66337 1.34531 4.26168 0.866667 4.26168C0.38802 4.26168 0 4.66337 0 5.15888C0 5.65439 0.38802 6.05608 0.866667 6.05608C1.11231 6.05608 1.33409 5.95028 1.4918 5.78029L2.05833 6.95327C2.94215 7.97742 3.14167 8.74766 3.14167 10.2897C2.38333 10.3178 2.275 11.215 2.275 12H10.6167ZM7.8 8.52336L6.39167 6.95327L4.98333 8.52336L6.39167 10.0935L7.8 8.52336Z" fill="white"/>
</svg>
