<svg width="28" height="27" viewBox="0 0 28 27" fill="none" xmlns="http://www.w3.org/2000/svg">
<path d="M20.1572 8.5699C20.08 8.55887 20.0028 8.55887 19.9256 8.5699C18.216 8.51476 16.8594 7.11402 16.8594 5.39343C16.8594 3.63976 18.2822 2.20593 20.0469 2.20593C21.8006 2.20593 23.2344 3.62873 23.2344 5.39343C23.2233 7.11402 21.8667 8.51476 20.1572 8.5699Z" fill="#434652"/>
<path d="M23.7522 16.2132C22.5169 17.0405 20.7853 17.3493 19.186 17.1397C19.6051 16.2353 19.8257 15.2316 19.8367 14.1728C19.8367 13.0699 19.5941 12.0221 19.1309 11.1066C20.7632 10.886 22.4948 11.1949 23.7412 12.0221C25.4838 13.1691 25.4838 15.0552 23.7522 16.2132Z" fill="#434652"/>
<path d="M7.92555 8.5699C8.00276 8.55887 8.07996 8.55887 8.15717 8.5699C9.86673 8.51476 11.2233 7.11402 11.2233 5.39343C11.2233 3.62873 9.80055 2.20593 8.03585 2.20593C6.28217 2.20593 4.85938 3.62873 4.85938 5.39343C4.85938 7.11402 6.21599 8.51476 7.92555 8.5699Z" fill="#434652"/>
<path d="M8.04636 14.1728C8.04636 15.2426 8.27798 16.2573 8.69709 17.1728C7.14195 17.3382 5.52062 17.0073 4.32945 16.2242C2.5868 15.0662 2.5868 13.1801 4.32945 12.022C5.50959 11.2279 7.17503 10.9081 8.74121 11.0845C8.289 12.011 8.04636 13.0588 8.04636 14.1728Z" fill="#434652"/>
<path d="M14.1895 17.5037C14.1012 17.4927 14.002 17.4927 13.9027 17.5037C11.8733 17.4375 10.252 15.7721 10.252 13.7206C10.263 11.625 11.9505 9.92651 14.0571 9.92651C16.1527 9.92651 17.8512 11.625 17.8512 13.7206C17.8402 15.7721 16.2299 17.4375 14.1895 17.5037Z" fill="#434652"/>
<path d="M10.6055 19.7867C8.94008 20.9007 8.94008 22.7316 10.6055 23.8345C12.5026 25.1029 15.6129 25.1029 17.5099 23.8345C19.1754 22.7206 19.1754 20.8897 17.5099 19.7867C15.6239 18.5184 12.5136 18.5184 10.6055 19.7867Z" fill="#434652"/>
</svg>
