<svg width="19" height="19" viewBox="0 0 19 19" fill="none" xmlns="http://www.w3.org/2000/svg">
<path d="M11.8408 17.3861L11.8499 17.3925C12.6369 17.8936 13.5714 18.1112 14.4989 18.0094C15.4263 17.9075 16.2913 17.4923 16.9508 16.8323L17.5237 16.2593C17.6507 16.1324 17.7514 15.9818 17.8202 15.816C17.8889 15.6501 17.9242 15.4724 17.9242 15.2929C17.9242 15.1134 17.8889 14.9356 17.8202 14.7698C17.7514 14.604 17.6507 14.4533 17.5237 14.3264L15.1072 11.9117C14.9803 11.7847 14.8296 11.684 14.6638 11.6153C14.498 11.5466 14.3202 11.5112 14.1407 11.5112C13.9612 11.5112 13.7835 11.5466 13.6177 11.6153C13.4518 11.684 13.3012 11.7847 13.1743 11.9117C12.9181 12.1678 12.5706 12.3117 12.2083 12.3117C11.846 12.3117 11.4985 12.1678 11.2423 11.9117L7.37837 8.04683C7.12222 7.79061 6.97833 7.44314 6.97833 7.08085C6.97833 6.71855 7.12222 6.37108 7.37837 6.11486C7.50534 5.98797 7.60606 5.83731 7.67478 5.67148C7.74349 5.50566 7.77886 5.32792 7.77886 5.14841C7.77886 4.96891 7.74349 4.79117 7.67478 4.62534C7.60606 4.45952 7.50534 4.30886 7.37837 4.18197L4.96272 1.76723C4.70649 1.51108 4.35903 1.36719 3.99673 1.36719C3.63443 1.36719 3.28696 1.51108 3.03074 1.76723L2.45688 2.34017C1.79703 2.99981 1.38197 3.86483 1.28028 4.79229C1.17859 5.71975 1.39636 6.65415 1.8976 7.4411L1.90307 7.45021C4.55025 11.3668 7.92369 14.7396 11.8408 17.3861V17.3861Z" stroke="white" stroke-width="1.4" stroke-linecap="round" stroke-linejoin="round"/>
</svg>
