<svg width="24" height="24" viewBox="0 0 24 24" fill="none" xmlns="http://www.w3.org/2000/svg">
<path d="M16.6941 0H6.83529C2.55294 0 0 2.55294 0 6.83529V16.6941C0 20 1.51765 22.2706 4.18823 23.1294C4.96471 23.4 5.85882 23.5294 6.83529 23.5294H16.6941C17.6706 23.5294 18.5647 23.4 19.3412 23.1294C22.0118 22.2706 23.5294 20 23.5294 16.6941V6.83529C23.5294 2.55294 20.9765 0 16.6941 0ZM21.7647 16.6941C21.7647 19.2118 20.7765 20.8 18.7882 21.4588C17.6471 19.2118 14.9412 17.6118 11.7647 17.6118C8.58823 17.6118 5.89412 19.2 4.74118 21.4588H4.72941C2.76471 20.8235 1.76471 19.2235 1.76471 16.7059V6.83529C1.76471 3.51765 3.51765 1.76471 6.83529 1.76471H16.6941C20.0118 1.76471 21.7647 3.51765 21.7647 6.83529V16.6941Z" fill="white"/>
<path d="M11.7645 7.05884C9.43509 7.05884 7.55273 8.94119 7.55273 11.2706C7.55273 13.6 9.43509 15.4941 11.7645 15.4941C14.0939 15.4941 15.9763 13.6 15.9763 11.2706C15.9763 8.94119 14.0939 7.05884 11.7645 7.05884Z" fill="white"/>
</svg>
