<svg width="13" height="16" viewBox="0 0 13 16" fill="none" xmlns="http://www.w3.org/2000/svg">
<path d="M9.39607 0H3.61152C0.719244 0 0 0.808707 0 4.03553V13.0514C0 15.1813 1.11712 15.6857 2.47144 14.1644L2.47909 14.1564C3.10652 13.4598 4.06296 13.5158 4.60622 14.2765L5.37902 15.3574C5.9988 16.2142 7.00114 16.2142 7.62092 15.3574L8.39372 14.2765C8.94463 13.5078 9.90107 13.4518 10.5285 14.1564C11.8905 15.6777 12.9999 15.1733 12.9999 13.0434V4.03553C13.0076 0.808707 12.2883 0 9.39607 0ZM8.67683 6.3976L8.29425 6.80595H8.2866L5.96819 9.23208C5.86872 9.33617 5.66213 9.44827 5.51675 9.46428L4.48379 9.62442C4.10887 9.68047 3.84872 9.40023 3.90228 9.01589L4.04766 7.92694C4.07061 7.7748 4.17008 7.56662 4.26955 7.45452L6.59561 5.0284L6.97819 4.62004C7.23069 4.35581 7.5138 4.16364 7.81986 4.16364C8.08001 4.16364 8.36312 4.29176 8.67683 4.62004C9.36547 5.34067 9.14357 5.90917 8.67683 6.3976Z" fill="white"/>
</svg>
