<svg width="11" height="11" viewBox="0 0 11 11" fill="none" xmlns="http://www.w3.org/2000/svg">
<path d="M7.53033 6.46967C7.23744 6.17678 6.76256 6.17678 6.46967 6.46967C6.17678 6.76256 6.17678 7.23744 6.46967 7.53033L7.53033 6.46967ZM9.46967 10.5303C9.76256 10.8232 10.2374 10.8232 10.5303 10.5303C10.8232 10.2374 10.8232 9.76256 10.5303 9.46967L9.46967 10.5303ZM4.5 7.25C2.98122 7.25 1.75 6.01878 1.75 4.5H0.25C0.25 6.84721 2.15279 8.75 4.5 8.75V7.25ZM1.75 4.5C1.75 2.98122 2.98122 1.75 4.5 1.75V0.25C2.15279 0.25 0.25 2.15279 0.25 4.5H1.75ZM4.5 1.75C6.01878 1.75 7.25 2.98122 7.25 4.5H8.75C8.75 2.15279 6.84721 0.25 4.5 0.25V1.75ZM7.25 4.5C7.25 6.01878 6.01878 7.25 4.5 7.25V8.75C6.84721 8.75 8.75 6.84721 8.75 4.5H7.25ZM6.46967 7.53033L9.46967 10.5303L10.5303 9.46967L7.53033 6.46967L6.46967 7.53033Z" fill="white"/>
</svg>
