<svg width="22" height="20" viewBox="0 0 22 20" fill="none" xmlns="http://www.w3.org/2000/svg">
<path d="M21.3621 7.6548L18.7795 2.46806C18.2738 1.44577 16.9286 0.617188 15.788 0.617188H6.03865C4.89799 0.617188 3.55289 1.44577 3.04713 2.46806L0.464508 7.6548C-0.159622 8.90306 0.184728 10.6786 1.20701 11.6148L8.6643 18.3834C9.9018 19.5025 11.9141 19.5025 13.1516 18.3834L20.6089 11.6148C21.6419 10.6786 21.9863 8.8923 21.3621 7.6548ZM15.2177 6.95534H11.7204V12.6048C11.7204 13.046 11.3545 13.4119 10.9133 13.4119C10.4721 13.4119 10.1063 13.046 10.1063 12.6048V6.95534H6.60897C6.16778 6.95534 5.80191 6.58947 5.80191 6.14827C5.80191 5.70708 6.16778 5.34121 6.60897 5.34121H15.2177C15.6589 5.34121 16.0247 5.70708 16.0247 6.14827C16.0247 6.58947 15.6589 6.95534 15.2177 6.95534Z" fill="#01BD99"/>
</svg>
