<svg width="20" height="22" viewBox="0 0 20 22" fill="none" xmlns="http://www.w3.org/2000/svg">
<path d="M16.6931 4.70502C16.5446 4.62827 16.4001 4.54414 16.26 4.45294C15.8527 4.18367 15.4792 3.86638 15.1477 3.50791C14.3181 2.55875 14.0083 1.59584 13.8942 0.921662H13.8988C13.8034 0.362065 13.8429 0 13.8488 0H10.0705V14.61C10.0705 14.8062 10.0705 15 10.0623 15.1916C10.0623 15.2154 10.06 15.2374 10.0586 15.2631C10.0586 15.2737 10.0586 15.2847 10.0563 15.2957C10.0563 15.2984 10.0563 15.3012 10.0563 15.3039C10.0165 15.8281 9.84843 16.3345 9.56696 16.7785C9.2855 17.2225 8.89922 17.5906 8.44213 17.8503C7.96574 18.1213 7.42692 18.2635 6.87883 18.2628C5.11846 18.2628 3.69174 16.8273 3.69174 15.0546C3.69174 13.2818 5.11846 11.8464 6.87883 11.8464C7.21206 11.8461 7.54324 11.8985 7.86007 12.0018L7.86466 8.15472C6.90283 8.03048 5.92569 8.10692 4.99489 8.37922C4.06408 8.65152 3.19981 9.11377 2.45659 9.73681C1.80537 10.3026 1.25787 10.9778 0.838759 11.7318C0.679267 12.0068 0.0775057 13.1118 0.00463437 14.9052C-0.0411967 15.9231 0.264496 16.9777 0.410239 17.4135V17.4227C0.501901 17.6793 0.857092 18.5552 1.43594 19.2935C1.9027 19.8858 2.45416 20.406 3.07256 20.8375V20.8284L3.08173 20.8375C4.91085 22.0805 6.93887 21.9989 6.93887 21.9989C7.28994 21.9847 8.46596 21.9989 9.80148 21.366C11.2827 20.6643 12.126 19.6189 12.126 19.6189C12.6648 18.9943 13.0932 18.2824 13.3928 17.5139C13.7347 16.6151 13.8488 15.5372 13.8488 15.1064V7.35542C13.8946 7.38292 14.5051 7.78669 14.5051 7.78669C14.5051 7.78669 15.3846 8.35042 16.7568 8.71752C17.7412 8.97876 19.0676 9.03376 19.0676 9.03376V5.28295C18.6029 5.33336 17.6592 5.1867 16.6931 4.70502Z" fill="white"/>
</svg>
