<svg width="14" height="18" viewBox="0 0 14 18" fill="none" xmlns="http://www.w3.org/2000/svg">
<path d="M4 3.68L4 16.32C4 17.52 4.15059 18 4.52471 18H5.47529C5.84941 18 6 17.52 6 16.32L6 3.68C6 2.48 5.84941 2 5.47529 2H4.52471C4.15059 2 4 2.48 4 3.68Z" fill="white"/>
<path d="M0 9.61539L0 16.3846C0 17.5385 0.150588 18 0.524706 18H1.47529C1.84941 18 2 17.5385 2 16.3846L2 9.61539C2 8.46154 1.84941 8 1.47529 8H0.524706C0.150588 8 0 8.46154 0 9.61539Z" fill="white"/>
<path d="M8 12.1308L8 16.8692C8 17.6769 8.15059 18 8.52471 18H9.47529C9.84941 18 10 17.6769 10 16.8692L10 12.1308C10 11.3231 9.84941 11 9.47529 11H8.52471C8.15059 11 8 11.3231 8 12.1308Z" fill="white"/>
<path d="M12 2.90769L12 15.0923C12 17.1692 12.1506 18 12.5247 18H13.4753C13.8494 18 14 17.1692 14 15.0923L14 2.90769C14 0.830769 13.8494 0 13.4753 0H12.5247C12.1506 0 12 0.830769 12 2.90769Z" fill="white"/>
</svg>
