<svg width="21" height="18" viewBox="0 0 21 18" fill="none" xmlns="http://www.w3.org/2000/svg">
<path d="M20.9066 2.08136C20.2273 2.37397 19.5132 2.57772 18.7818 2.68759C19.1237 2.62892 19.6268 2.01292 19.8271 1.76358C20.1314 1.38748 20.3632 0.958138 20.5109 0.497352C20.5109 0.463129 20.5451 0.41424 20.5109 0.389795C20.4937 0.380381 20.4744 0.375448 20.4548 0.375448C20.4351 0.375448 20.4158 0.380381 20.3986 0.389795C19.6045 0.820227 18.7593 1.14875 17.883 1.36758C17.8525 1.37692 17.82 1.37776 17.789 1.37C17.758 1.36225 17.7298 1.3462 17.7072 1.32358C17.639 1.24229 17.5656 1.16554 17.4874 1.0938C17.13 0.773306 16.7245 0.510996 16.2858 0.316461C15.6935 0.0732748 15.0538 -0.0320439 14.415 0.00845881C13.7951 0.0476425 13.1899 0.214057 12.637 0.497352C12.0925 0.796027 11.614 1.20179 11.2302 1.69025C10.8265 2.193 10.535 2.77646 10.3754 3.40137C10.2438 3.9958 10.2289 4.61015 10.3315 5.21028C10.3315 5.31295 10.3315 5.32761 10.2436 5.31295C6.76084 4.79961 3.90336 3.56271 1.56853 0.908022C1.46595 0.790687 1.41222 0.790687 1.32918 0.908022C0.313187 2.45292 0.80653 4.89739 2.07652 6.10495C2.24748 6.26629 2.42333 6.42273 2.60894 6.5694C2.02666 6.52802 1.4586 6.37009 0.938414 6.10495C0.840722 6.0414 0.786992 6.07562 0.782107 6.19295C0.76826 6.35562 0.76826 6.51918 0.782107 6.68184C0.884027 7.46143 1.19098 8.19994 1.67159 8.82184C2.1522 9.44375 2.7892 9.92674 3.51748 10.2214C3.69501 10.2975 3.88 10.3549 4.06943 10.3925C3.53038 10.4988 2.97752 10.5153 2.4331 10.4414C2.31587 10.417 2.27191 10.4805 2.31587 10.593C3.0339 12.5486 4.59208 13.145 5.73508 13.4775C5.89138 13.5019 6.04769 13.5019 6.22354 13.541C6.22354 13.541 6.22354 13.541 6.19423 13.5703C5.85719 14.1863 4.49439 14.6019 3.86917 14.817C2.72797 15.2273 1.51123 15.3841 0.303418 15.2766C0.112919 15.2472 0.0689576 15.2521 0.0201118 15.2766C-0.0287341 15.301 0.0201117 15.3548 0.0738422 15.4037C0.318071 15.565 0.562301 15.7068 0.816299 15.8437C1.57246 16.2565 2.37186 16.5844 3.19998 16.8215C7.48864 18.0046 12.3146 17.1344 15.5336 13.9321C18.0638 11.4192 18.9528 7.95297 18.9528 4.48183C18.9528 4.34983 19.114 4.2716 19.2068 4.20316C19.8469 3.70395 20.4112 3.11439 20.8822 2.45292C20.9637 2.35432 21.0055 2.22878 20.9994 2.10092C20.9994 2.02759 20.9994 2.04225 20.9066 2.08136Z" fill="white"/>
</svg>
