<svg width="27" height="19" viewBox="0 0 27 19" fill="none" xmlns="http://www.w3.org/2000/svg">
<path d="M26.4373 2.96659C26.1281 1.80068 25.2132 0.880909 24.0492 0.565682C21.9445 1.85528e-07 13.5 0 13.5 0C13.5 0 5.05982 1.85528e-07 2.95084 0.565682C1.79112 0.876591 0.876233 1.79636 0.562679 2.96659C0 5.0825 0 9.5 0 9.5C0 9.5 0 13.9175 0.562679 16.0334C0.871938 17.1993 1.78683 18.1191 2.95084 18.4343C5.05982 19 13.5 19 13.5 19C13.5 19 21.9445 19 24.0492 18.4343C25.2089 18.1234 26.1238 17.2036 26.4373 16.0334C27 13.9175 27 9.5 27 9.5C27 9.5 27 5.0825 26.4373 2.96659Z" fill="white"/>
<path d="M10.8026 13.572L17.8167 9.5L10.8026 5.42795V13.572Z" fill="#191B22"/>
</svg>
